<svg width="24" height="33" viewBox="0 0 24 33" fill="none" xmlns="http://www.w3.org/2000/svg">
<path d="M11.5059 15.5226C10.4161 15.5226 9.37087 15.1 8.60023 14.3476C7.8296 13.5952 7.39666 12.5748 7.39666 11.5108C7.39666 10.4467 7.8296 9.4263 8.60023 8.67392C9.37087 7.92155 10.4161 7.49887 11.5059 7.49887C12.5958 7.49887 13.641 7.92155 14.4116 8.67392C15.1822 9.4263 15.6152 10.4467 15.6152 11.5108C15.6152 12.0376 15.5089 12.5593 15.3024 13.046C15.0959 13.5328 14.7932 13.975 14.4116 14.3476C14.03 14.7201 13.577 15.0156 13.0785 15.2173C12.5799 15.4189 12.0456 15.5226 11.5059 15.5226ZM11.5059 0.277466C8.45436 0.277466 5.52778 1.46097 3.37001 3.56762C1.21223 5.67427 0 8.5315 0 11.5108C0 19.9357 11.5059 32.3726 11.5059 32.3726C11.5059 32.3726 23.0118 19.9357 23.0118 11.5108C23.0118 8.5315 21.7996 5.67427 19.6418 3.56762C17.4841 1.46097 14.5575 0.277466 11.5059 0.277466Z" fill="#59160C"/>
</svg>
