<svg width="73" height="73" viewBox="0 0 73 73" fill="none" xmlns="http://www.w3.org/2000/svg">
<path d="M71.415 0.800781H2.08694C1.79038 0.800781 1.50596 0.918591 1.29626 1.12829C1.08656 1.338 0.96875 1.62241 0.96875 1.91898L0.96875 71.247C0.96875 71.5436 1.08656 71.828 1.29626 72.0377C1.50596 72.2474 1.79038 72.3652 2.08694 72.3652H71.415C71.7116 72.3652 71.996 72.2474 72.2057 72.0377C72.4154 71.828 72.5332 71.5436 72.5332 71.247V1.91898C72.5332 1.62241 72.4154 1.338 72.2057 1.12829C71.996 0.918591 71.7116 0.800781 71.415 0.800781ZM70.2968 70.1288H3.20514V3.03717H70.2968V70.1288Z" fill="white"/>
<path d="M7.67792 35.4648H34.5146C34.8111 35.4648 35.0956 35.347 35.3053 35.1373C35.515 34.9276 35.6328 34.6432 35.6328 34.3466V7.50995C35.6328 7.21339 35.515 6.92897 35.3053 6.71927C35.0956 6.50956 34.8111 6.39175 34.5146 6.39175H7.67792C7.38135 6.39175 7.09694 6.50956 6.88723 6.71927C6.67753 6.92897 6.55972 7.21339 6.55972 7.50995V34.3466C6.55972 34.6432 6.67753 34.9276 6.88723 35.1373C7.09694 35.347 7.38135 35.4648 7.67792 35.4648ZM17.0864 33.2284L27.4778 22.837L25.8967 21.2559L13.9242 33.2284H10.3772L33.3964 10.2093V33.2284H17.0864ZM25.1061 8.62814L13.5965 20.1377L15.1776 21.7188L28.2684 8.62814H31.8153L8.79611 31.6473V8.62814H25.1061Z" fill="white"/>
<path d="M38.9874 35.4648H65.824C66.1206 35.4648 66.405 35.347 66.6147 35.1373C66.8244 34.9276 66.9422 34.6432 66.9422 34.3466V7.50995C66.9422 7.21339 66.8244 6.92897 66.6147 6.71927C66.405 6.50956 66.1206 6.39175 65.824 6.39175H38.9874C38.6908 6.39175 38.4064 6.50956 38.1967 6.71927C37.987 6.92897 37.8692 7.21339 37.8692 7.50995V34.3466C37.8692 34.6432 37.987 34.9276 38.1967 35.1373C38.4064 35.347 38.6908 35.4648 38.9874 35.4648ZM40.1056 8.62814H64.7058V33.2284H40.1056V8.62814Z" fill="white"/>
<path d="M7.67792 66.7743H34.5146C34.8111 66.7743 35.0956 66.6565 35.3053 66.4468C35.515 66.237 35.6328 65.9526 35.6328 65.6561V38.8194C35.6328 38.5228 35.515 38.2384 35.3053 38.0287C35.0956 37.819 34.8111 37.7012 34.5146 37.7012H7.67792C7.38135 37.7012 7.09694 37.819 6.88723 38.0287C6.67753 38.2384 6.55972 38.5228 6.55972 38.8194V65.6561C6.55972 65.9526 6.67753 66.237 6.88723 66.4468C7.09694 66.6565 7.38135 66.7743 7.67792 66.7743ZM8.79611 39.9376H33.3964V64.5379H8.79611V39.9376Z" fill="white"/>
<path d="M38.9874 66.7743H65.824C66.1206 66.7743 66.405 66.6565 66.6147 66.4468C66.8244 66.237 66.9422 65.9526 66.9422 65.6561V38.8194C66.9422 38.5228 66.8244 38.2384 66.6147 38.0287C66.405 37.819 66.1206 37.7012 65.824 37.7012H38.9874C38.6908 37.7012 38.4064 37.819 38.1967 38.0287C37.987 38.2384 37.8692 38.5228 37.8692 38.8194V65.6561C37.8692 65.9526 37.987 66.237 38.1967 66.4468C38.4064 66.6565 38.6908 66.7743 38.9874 66.7743ZM48.3959 64.5379L58.7872 54.1465L57.2061 52.5654L45.2336 64.5379H41.6867L64.7058 41.5187V64.5379H48.3959ZM56.4155 39.9376L44.906 51.4472L46.4871 53.0283L59.5778 39.9376H63.1247L40.1056 62.9567V39.9376H56.4155Z" fill="white"/>
</svg>
