<svg width="73" height="73" viewBox="0 0 73 73" fill="none" xmlns="http://www.w3.org/2000/svg">
<path d="M69.241 0.801953H4.26093C2.66194 0.743109 0.93827 2.25642 0.969159 4.09359V27.2087C0.969159 27.7876 1.43837 28.257 2.01745 28.257C2.59653 28.257 3.06574 27.7876 3.06574 27.2087V4.17284L35.7025 32.9683V59.9157C35.7025 60.4947 36.1717 60.964 36.7508 60.964C37.3299 60.964 37.7991 60.4947 37.7991 59.9157V33.5436H70.4359V69.0736C70.4359 69.7326 69.8998 70.2687 69.2408 70.2687H37.7991V64.8838C37.7991 64.3049 37.3299 63.8355 36.7508 63.8355C36.1717 63.8355 35.7025 64.3049 35.7025 64.8838V70.2687H4.26079C3.60177 70.2687 3.06574 69.7326 3.06574 69.0736V32.4953C3.06574 31.9163 2.59653 31.447 2.01745 31.447C1.43837 31.447 0.969159 31.9163 0.969159 32.4953V69.0736C0.969159 70.8887 2.44571 72.3652 4.26079 72.3652H69.2408C71.0558 72.3652 72.5324 70.8887 72.5324 69.0736V4.09359C72.5324 2.27851 71.0559 0.801953 69.241 0.801953ZM70.4359 4.09359V29.0356L62.424 17.0278C62.1025 16.5462 61.4516 16.4163 60.9702 16.7376C60.4887 17.059 60.3587 17.7099 60.6802 18.1914L62.7762 21.3329H52.0814L45.4174 13.232H57.371L57.966 14.1238C58.2874 14.6054 58.9384 14.7353 59.4199 14.4139C59.9014 14.0926 60.0314 13.4417 59.7099 12.9602L52.9965 2.89839H69.2407C69.8998 2.89853 70.4359 3.43456 70.4359 4.09359ZM48.7697 31.447L40.9285 23.4295H51.0913L57.6867 31.447H48.7697ZM38.878 21.3329L30.9552 13.232H42.7024L49.3665 21.3329H38.878ZM16.5024 13.2322H28.0225L35.9452 21.3331H25.6841L16.5024 13.2322ZM34.2018 2.89853L40.9778 11.1356H28.9047L20.8488 2.89853H34.2018ZM55.9721 11.1356H43.6926L36.9166 2.89853H50.4761L55.9721 11.1356ZM17.9161 2.89853L25.972 11.1356H14.1263L4.79039 2.89853H17.9161ZM37.1472 31.447L28.0602 23.4295H37.9958L45.837 31.447H37.1472ZM60.4015 31.447L53.8061 23.4295H64.1751L69.5246 31.447H60.4015Z" fill="white"/>
</svg>
