<svg width="17" height="16" viewBox="0 0 17 16" fill="none" xmlns="http://www.w3.org/2000/svg">
<path d="M16.5277 1.34005V12.5399C16.5277 12.7684 16.4316 12.9876 16.2605 13.1491C16.0894 13.3107 15.8574 13.4015 15.6155 13.4015C15.3736 13.4015 15.1415 13.3107 14.9705 13.1491C14.7994 12.9876 14.7033 12.7684 14.7033 12.5399V3.41957L1.66553 15.7341C1.49436 15.8957 1.26221 15.9866 1.02014 15.9866C0.778071 15.9866 0.545918 15.8957 0.37475 15.7341C0.203583 15.5724 0.107422 15.3532 0.107422 15.1245C0.107422 14.8959 0.203583 14.6767 0.37475 14.515L13.4136 2.20158L3.75677 2.20158C3.51483 2.20158 3.28281 2.11081 3.11174 1.94924C2.94066 1.78767 2.84456 1.56854 2.84456 1.34005C2.84456 1.11155 2.94066 0.892421 3.11174 0.730852C3.28281 0.569284 3.51483 0.478516 3.75677 0.478516L15.6155 0.478516C15.8574 0.478516 16.0894 0.569284 16.2605 0.730852C16.4316 0.892421 16.5277 1.11155 16.5277 1.34005Z" fill="#471224"/>
</svg>
