<svg width="20" height="20" viewBox="0 0 20 20" fill="none" xmlns="http://www.w3.org/2000/svg">
<path d="M18.3105 19.8077L1.04965 19.7561C0.812735 19.7717 0.580965 19.6819 0.416602 19.5106C0.073276 19.169 0.0718828 18.6137 0.413572 18.2703C0.578543 18.1045 0.802923 18.0115 1.03681 18.0119L16.153 18.0119L0.752475 2.61132C0.402912 2.27605 0.391346 1.72088 0.726616 1.37132C0.730916 1.3669 0.735215 1.36248 0.739575 1.35812C1.07478 1.00849 1.62995 0.996806 1.97958 1.33202C1.98848 1.34055 1.99714 1.34921 2.00568 1.35812L17.4061 16.7586L17.3932 1.65523C17.3852 1.17092 17.7713 0.771819 18.2556 0.763765C18.2653 0.763644 18.2751 0.763582 18.2847 0.763764C18.7484 0.742264 19.1417 1.10067 19.1632 1.56439C19.1644 1.59031 19.1644 1.61635 19.1632 1.64227L19.1632 18.8773C19.1677 19.0053 19.1456 19.1329 19.0986 19.252C19.0443 19.3261 18.9789 19.3915 18.9048 19.4458L18.9435 19.5621C18.7792 19.7335 18.5475 19.8233 18.3105 19.8077Z" fill="#FAF2E7"/>
</svg>
