<svg width="18" height="18" viewBox="0 0 18 18" fill="none" xmlns="http://www.w3.org/2000/svg">
<path d="M8.81665 13.5975L4.49868 9.28074L5.36252 8.40226L8.20659 11.2463V0.692383H9.42671V11.2463L12.2696 8.40348L13.1346 9.28074L8.81665 13.5975ZM2.24758 17.7739C1.68551 17.7739 1.21658 17.586 0.84079 17.2102C0.464996 16.8344 0.276692 16.3651 0.275879 15.8022V12.8459H1.49599V15.8022C1.49599 15.9901 1.57408 16.1626 1.73025 16.3196C1.88642 16.4765 2.05846 16.5546 2.24636 16.5538H15.3869C15.574 16.5538 15.7461 16.4757 15.9031 16.3196C16.06 16.1634 16.1381 15.9909 16.1373 15.8022V12.8459H17.3574V15.8022C17.3574 16.3643 17.1695 16.8332 16.7937 17.209C16.4179 17.5848 15.9486 17.7731 15.3857 17.7739H2.24758Z" fill="#E8EEEC"/>
</svg>
