<svg width="52" height="52" viewBox="0 0 52 52" fill="none" xmlns="http://www.w3.org/2000/svg">
<path d="M0.141357 7.71712C0.141357 3.95909 3.18785 0.912598 6.94588 0.912598H13.7504C14.6899 0.912598 15.4515 1.67422 15.4515 2.61373C15.4515 3.55324 14.6899 4.31486 13.7504 4.31486H6.94588C5.06686 4.31486 3.54362 5.8381 3.54362 7.71712V14.5216C3.54362 15.4612 2.782 16.2228 1.84249 16.2228C0.902979 16.2228 0.141357 15.4612 0.141357 14.5216V7.71712Z" fill="#FAF2E7"/>
<path d="M35.8651 2.61373C35.8651 1.67422 36.6267 0.912598 37.5662 0.912598H44.3708C48.1288 0.912598 51.1753 3.95909 51.1753 7.71712V14.5216C51.1753 15.4612 50.4137 16.2228 49.4742 16.2228C48.5346 16.2228 47.773 15.4612 47.773 14.5216V7.71712C47.773 5.8381 46.2498 4.31486 44.3708 4.31486H37.5662C36.6267 4.31486 35.8651 3.55324 35.8651 2.61373Z" fill="#FAF2E7"/>
<path d="M1.84249 36.6364C2.782 36.6364 3.54362 37.3979 3.54362 38.3375V45.142C3.54362 47.021 5.06686 48.5443 6.94588 48.5443H13.7504C14.6899 48.5443 15.4515 49.3059 15.4515 50.2454C15.4515 51.1849 14.6899 51.9465 13.7504 51.9465H6.94588C3.18785 51.9465 0.141357 48.9001 0.141357 45.142V38.3375C0.141357 37.3979 0.902979 36.6364 1.84249 36.6364Z" fill="#FAF2E7"/>
<path d="M49.4742 36.6364C50.4137 36.6364 51.1753 37.3979 51.1753 38.3375V45.142C51.1753 48.9001 48.1288 51.9465 44.3708 51.9465H37.5662C36.6267 51.9465 35.8651 51.1849 35.8651 50.2454C35.8651 49.3059 36.6267 48.5443 37.5662 48.5443H44.3708C46.2498 48.5443 47.773 47.021 47.773 45.142V38.3375C47.773 37.3979 48.5346 36.6364 49.4742 36.6364Z" fill="#FAF2E7"/>
<path d="M14.601 13.6711C15.5405 13.6711 16.3021 14.4327 16.3021 15.3722V18.7745C16.3021 19.714 15.5405 20.4756 14.601 20.4756C13.6614 20.4756 12.8998 19.714 12.8998 18.7745V15.3722C12.8998 14.4327 13.6614 13.6711 14.601 13.6711Z" fill="#FAF2E7"/>
<path d="M38.4168 15.3722C38.4168 14.4327 37.6552 13.6711 36.7157 13.6711C35.7761 13.6711 35.0145 14.4327 35.0145 15.3722V18.7745C35.0145 19.714 35.7761 20.4756 36.7157 20.4756C37.6552 20.4756 38.4168 19.714 38.4168 18.7745V15.3722Z" fill="#FAF2E7"/>
<path d="M25.6583 13.6711C26.5979 13.6711 27.3595 14.4327 27.3595 15.3722V23.2755C27.3595 25.8529 25.9033 28.209 23.598 29.3616L23.0168 29.6523C22.1765 30.0724 21.1547 29.7318 20.7345 28.8914C20.3144 28.0512 20.655 27.0293 21.4953 26.6091L22.0765 26.3186C23.2291 25.7422 23.9572 24.5642 23.9572 23.2755V15.3722C23.9572 14.4327 24.7188 13.6711 25.6583 13.6711Z" fill="#FAF2E7"/>
<path d="M17.4244 33.6568C16.7184 33.037 15.6435 33.1068 15.0237 33.8129C14.4039 34.519 14.4737 35.5938 15.1798 36.2136C20.9891 41.3136 30.3275 41.3136 36.1369 36.2136C36.8429 35.5938 36.9128 34.519 36.2929 33.8129C35.6731 33.1068 34.5983 33.037 33.8922 33.6568C29.367 37.6296 21.9497 37.6296 17.4244 33.6568Z" fill="#FAF2E7"/>
</svg>
