<svg width="52" height="52" viewBox="0 0 52 52" fill="none" xmlns="http://www.w3.org/2000/svg">
<path d="M24.7786 25.4909H24.903V25.3664V17.9239C24.903 17.4079 25.3258 16.9852 25.8418 16.9852C26.3578 16.9852 26.7805 17.4079 26.7805 17.9239V31.7456C26.7805 32.2617 26.3578 32.6844 25.8418 32.6844C25.3258 32.6844 24.903 32.2617 24.903 31.7456V27.4928V27.3683H24.7786H16.2729C15.7569 27.3683 15.3342 26.9456 15.3342 26.4296C15.3342 25.9136 15.7569 25.4909 16.2729 25.4909H24.7786ZM42.8531 2.91454H42.7286V3.03901V7.29185C42.7286 7.80787 42.3059 8.23058 41.7899 8.23058C41.2739 8.23058 40.8512 7.80787 40.8512 7.29185V1.97581C40.8512 1.45979 41.2739 1.03707 41.7899 1.03707H48.1798C49.8648 1.03707 51.2343 2.41613 51.2343 4.10222V48.757C51.2343 50.4425 49.8547 51.8221 48.1692 51.8221H3.51439C1.82884 51.8221 0.449241 50.4425 0.449241 48.757V4.10222C0.449241 2.41667 1.82884 1.03707 3.51439 1.03707H34.3474C34.8635 1.03707 35.2862 1.45979 35.2862 1.97581V7.29185C35.2862 7.80787 34.8635 8.23058 34.3474 8.23058C33.8314 8.23058 33.4087 7.80787 33.4087 7.29185V3.03901V2.91454H33.2842H26.905H26.7805V3.03901V12.6079C26.7805 13.1239 26.3578 13.5466 25.8418 13.5466C25.3258 13.5466 24.903 13.1239 24.903 12.6079V3.03901V2.91454H24.7786H3.51439C2.86088 2.91454 2.32671 3.44871 2.32671 4.10222V25.3664V25.4909H2.45119H11.9882C12.5042 25.4909 12.9269 25.9136 12.9269 26.4296C12.9269 26.9456 12.5042 27.3683 11.9882 27.3683H2.45119H2.32671V27.4928V48.757C2.32671 49.4105 2.86088 49.9447 3.51439 49.9447H24.7786H24.903V49.8202V38.1249C24.903 37.6089 25.3258 37.1862 25.8418 37.1862C26.3578 37.1862 26.7805 37.6089 26.7805 38.1249V49.8202V49.9447H26.905H48.1692C48.8227 49.9447 49.3568 49.4105 49.3568 48.757V32.8089V32.6844H49.2324H33.2842C32.7682 32.6844 32.3455 32.2617 32.3455 31.7456C32.3455 31.2296 32.7682 30.8069 33.2842 30.8069H49.2324H49.3568V30.6824V25.3664V25.2419H49.2324H38.6003C38.0843 25.2419 37.6615 24.8192 37.6615 24.3032C37.6615 23.7872 38.0843 23.3645 38.6003 23.3645H49.2324H49.3568V23.24V4.10222C49.3568 3.44953 48.8235 2.91454 48.1798 2.91454H42.8531Z" fill="#FAF2E7" stroke="#FAF2E7" stroke-width="0.248946"/>
</svg>
