<svg width="36" height="36" viewBox="0 0 36 36" fill="none" xmlns="http://www.w3.org/2000/svg">
<rect x="0.606689" y="0.596191" width="35" height="35" rx="5" fill="#59160C"/>
<path d="M13.1271 6.89209H12.8782C10.7866 6.89209 9.74082 6.89209 8.94195 7.29913C8.23924 7.65718 7.66792 8.2285 7.30988 8.93121C6.90283 9.73008 6.90283 10.7759 6.90283 12.8674V13.1164M13.1271 29.2996H12.8782C10.7866 29.2996 9.74082 29.2996 8.94195 28.8925C8.23924 28.5345 7.66792 27.9632 7.30988 27.2604C6.90283 26.4616 6.90283 25.4158 6.90283 23.3242V23.0753M29.3103 13.1164V12.8674C29.3103 10.7759 29.3103 9.73008 28.9033 8.93121C28.5452 8.2285 27.9739 7.65718 27.2712 7.29913C26.4723 6.89209 25.4265 6.89209 23.335 6.89209H23.086M29.3103 23.0753V23.3242C29.3103 25.4158 29.3103 26.4616 28.9033 27.2604C28.5452 27.9632 27.9739 28.5345 27.2712 28.8925C26.4723 29.2996 25.4265 29.2996 23.335 29.2996H23.086M12.5047 13.1164V14.9837M23.7084 13.1164V14.9837M16.8617 18.8429C17.8576 18.8429 18.729 17.9715 18.729 16.9756V13.1164M22.0904 22.0793C19.8496 24.3201 16.2395 24.3201 13.9988 22.0793" stroke="#F9F1E6" stroke-width="1.41219" stroke-linecap="round" stroke-linejoin="round"/>
</svg>
