<svg width="36" height="36" viewBox="0 0 36 36" fill="none" xmlns="http://www.w3.org/2000/svg">
<rect x="0.606689" y="0.596191" width="35" height="35" rx="5" fill="#59160C"/>
<path fill-rule="evenodd" clip-rule="evenodd" d="M18.2677 20.841C18.2677 19.5259 17.1583 18.4561 15.7946 18.4561C14.4309 18.4561 13.3215 19.5259 13.3215 20.841C13.3215 21.519 13.618 22.1558 14.1294 22.6043L13.3946 26.2662C13.3636 26.4207 13.4058 26.5805 13.5097 26.702C13.6135 26.8234 13.7683 26.8937 13.9315 26.8937H17.6576C17.8209 26.8937 17.9756 26.8234 18.0794 26.702C18.1833 26.5805 18.2255 26.4207 18.1945 26.2662L17.4597 22.6043C17.9712 22.1557 18.2677 21.519 18.2677 20.841ZM16.3226 22.489L16.9948 25.839H14.5944L15.2666 22.489C15.3085 22.2801 15.2162 22.0674 15.0324 21.9496C14.646 21.7019 14.4152 21.2874 14.4152 20.841C14.4152 20.1075 15.034 19.5108 15.7946 19.5108C16.5552 19.5108 17.174 20.1075 17.174 20.841C17.174 21.2875 16.9432 21.7019 16.5568 21.9496C16.3731 22.0674 16.2807 22.2801 16.3226 22.489ZM22.5495 13.4525V11.1099C22.5495 7.5182 19.5193 4.59619 15.7946 4.59619C12.0699 4.59619 9.03964 7.5182 9.03964 11.1099V13.4525C7.33973 13.7502 6.04626 15.1872 6.04626 16.911V28.08C6.04626 30.0189 7.68208 31.5962 9.69272 31.5962H21.8965C23.9071 31.5962 25.543 30.0189 25.543 28.08V16.911C25.543 15.1872 24.2495 13.7502 22.5495 13.4525ZM15.7946 5.65088C18.9162 5.65088 21.4558 8.09976 21.4558 11.1099V13.3949H10.1334V11.1099C10.1334 8.09976 12.673 5.65088 15.7946 5.65088ZM24.4492 28.08C24.4492 29.4372 23.3041 30.5415 21.8965 30.5415H9.69272C8.28517 30.5415 7.14001 29.4373 7.14001 28.08V16.911C7.14001 15.5538 8.28512 14.4495 9.69272 14.4495H21.8965C23.3041 14.4495 24.4492 15.5537 24.4492 16.911V28.08ZM30.1671 11.8495C30.1671 12.1407 29.9222 12.3769 29.6202 12.3769C29.3181 12.3769 29.0733 12.1407 29.0733 11.8495C29.0733 10.724 28.6188 9.66597 27.7935 8.87015C26.9682 8.07429 25.8709 7.63601 24.7037 7.63601C24.4017 7.63601 24.1568 7.39987 24.1568 7.10867C24.1568 6.81747 24.4017 6.58132 24.7037 6.58132C26.1631 6.58132 27.535 7.12934 28.5669 8.12438C29.5987 9.11932 30.1671 10.4423 30.1671 11.8495ZM26.8886 9.7427C27.4722 10.3055 27.7936 11.0537 27.7936 11.8495C27.7936 12.1407 27.5487 12.3769 27.2467 12.3769C26.9447 12.3769 26.6998 12.1407 26.6998 11.8495C26.6998 11.3354 26.4922 10.8521 26.1152 10.4885C25.7382 10.1249 25.237 9.92474 24.7039 9.92474C24.7038 9.92474 24.7038 9.92474 24.7037 9.92474C24.4017 9.92479 24.1569 9.68864 24.1568 9.39745C24.1568 9.10619 24.4016 8.87005 24.7036 8.87005H24.7039C25.5292 8.87005 26.305 9.17992 26.8886 9.7427ZM24.2203 12.3157C23.9534 12.0582 23.9534 11.6409 24.2203 11.3834C24.4873 11.126 24.9201 11.126 25.1871 11.3834C25.4541 11.6409 25.4541 12.0582 25.1871 12.3157C24.9201 12.5731 24.4873 12.5731 24.2203 12.3157Z" fill="#F9F1E6"/>
</svg>
