<svg width="36" height="36" viewBox="0 0 36 36" fill="none" xmlns="http://www.w3.org/2000/svg">
<rect x="0.803711" y="0.596191" width="35" height="35" rx="5" fill="#59160C"/>
<path d="M26.6458 23.7668C25.9324 23.7667 25.2402 24.009 24.6827 24.454L21.5639 21.3353H26.5281C27.0214 21.3359 27.5008 21.1712 27.8896 20.8675C28.2785 20.5639 28.5544 20.1388 28.6735 19.66L29.7985 15.1554C29.8038 15.1234 29.8038 15.0907 29.7985 15.0586C29.8021 15.0562 29.8054 15.0533 29.8081 15.0499C29.7632 12.6608 28.7813 10.385 27.074 8.71305C27.0679 8.70521 27.0653 8.69736 27.0592 8.69038C27.0531 8.6834 27.0409 8.68079 27.0322 8.67294C25.3333 7.01978 23.0561 6.09537 20.6857 6.09668C20.6379 6.09657 20.5906 6.10586 20.5465 6.12403C20.5023 6.1422 20.4621 6.16889 20.4283 6.20258C20.3944 6.23627 20.3676 6.2763 20.3492 6.32038C20.3308 6.36446 20.3213 6.41173 20.3212 6.45948V13.6475C20.0677 13.714 19.8365 13.8469 19.6516 14.0326C19.4667 14.2182 19.3348 14.4499 19.2694 14.7037H14.9314L11.9365 11.7088C11.9023 11.6743 11.8616 11.6471 11.8166 11.6286C11.7717 11.6102 11.7235 11.601 11.6749 11.6015H7.1608C7.06434 11.6015 6.97184 11.6398 6.90364 11.708C6.83543 11.7763 6.79712 11.8688 6.79712 11.9652C6.79712 12.0617 6.83543 12.1542 6.90364 12.2224C6.97184 12.2906 7.06434 12.3289 7.1608 12.3289H11.5284L13.9032 14.7037H11.9235C11.8683 14.704 11.8139 14.7167 11.7643 14.7411C11.7148 14.7654 11.6714 14.8006 11.6374 14.8441C11.6032 14.8874 11.5794 14.938 11.5679 14.992C11.5564 15.046 11.5575 15.1019 11.5711 15.1554L12.697 19.66C12.8158 20.1388 13.0915 20.5639 13.4803 20.8676C13.869 21.1713 14.3483 21.336 14.8416 21.3353H19.8075L16.6879 24.454C16.1387 24.0194 15.4608 23.7794 14.7604 23.7716C14.0601 23.7639 13.377 23.9888 12.8183 24.4112C12.2597 24.8336 11.857 25.4294 11.6735 26.1053C11.4901 26.7813 11.5362 27.499 11.8046 28.1458C12.073 28.7927 12.5486 29.3322 13.1568 29.6796C13.7649 30.027 14.4711 30.1627 15.1647 30.0654C15.8583 29.9681 16.5 29.6433 16.989 29.142C17.4781 28.6407 17.7869 27.9912 17.867 27.2954H23.5035C23.5739 27.9017 23.8181 28.4748 24.2067 28.9454C24.5953 29.4161 25.1118 29.7643 25.6939 29.9481C26.2759 30.1319 26.8987 30.1434 27.4872 29.9812C28.0756 29.819 28.6046 29.4901 29.0104 29.0341C29.4161 28.5781 29.6813 28.0145 29.7739 27.4112C29.8666 26.8078 29.7828 26.1906 29.5326 25.6339C29.2824 25.0771 28.8765 24.6046 28.3638 24.2733C27.8511 23.9421 27.2536 23.7662 26.6432 23.7668H26.6458ZM23.5062 26.5681H17.867C17.7993 25.9832 17.5694 25.4289 17.2033 24.9677L20.6857 21.4862L24.1681 24.9695C23.8014 25.4297 23.5712 25.9835 23.5035 26.5681H23.5062ZM29.0642 14.7072H22.1047C22.0697 14.573 22.0159 14.4444 21.9451 14.3252L26.7923 9.47791C28.1374 10.9003 28.9406 12.7497 29.0616 14.7037L29.0642 14.7072ZM26.2734 8.97033L21.4322 13.8106C21.3135 13.7389 21.1847 13.6851 21.0503 13.651V6.83188C22.9855 6.91698 24.8312 7.67163 26.2717 8.96684L26.2734 8.97033ZM20.6918 14.3269C20.839 14.3267 20.9829 14.3702 21.1053 14.4519C21.2278 14.5335 21.3233 14.6496 21.3797 14.7856C21.4362 14.9215 21.451 15.0711 21.4224 15.2154C21.3938 15.3598 21.323 15.4924 21.219 15.5966C21.115 15.7007 20.9825 15.7716 20.8381 15.8004C20.6938 15.8292 20.5442 15.8145 20.4082 15.7582C20.2722 15.7019 20.156 15.6066 20.0742 15.4842C19.9924 15.3619 19.9488 15.218 19.9488 15.0708C19.9478 14.8741 20.0248 14.6851 20.1629 14.545C20.3011 14.4049 20.489 14.3253 20.6857 14.3234L20.6918 14.3269ZM19.2694 15.4284C19.3488 15.7447 19.5316 16.0254 19.7887 16.226C20.0459 16.4266 20.3626 16.5355 20.6888 16.5355C21.0149 16.5355 21.3317 16.4266 21.5888 16.226C21.846 16.0254 22.0287 15.7447 22.1081 15.4284H28.9848L27.9714 19.4803C27.8916 19.8017 27.7064 20.0871 27.4454 20.291C27.1845 20.4949 26.8627 20.6056 26.5316 20.6053H20.8392L15.6588 15.4284H19.2694ZM13.4026 19.4829L12.3892 15.4284H14.6305L19.8075 20.6053H14.8416C14.5109 20.6055 14.1897 20.4952 13.9289 20.2918C13.6682 20.0884 13.4829 19.8037 13.4026 19.4829ZM14.7247 29.3685C14.3388 29.3695 13.958 29.279 13.6139 29.1042C13.2698 28.9294 12.9721 28.6754 12.7453 28.363C12.5185 28.0507 12.3692 27.689 12.3095 27.3076C12.2499 26.9263 12.2816 26.5362 12.4022 26.1696C12.5227 25.8029 12.7286 25.4701 13.0029 25.1985C13.2772 24.927 13.6121 24.7245 13.98 24.6076C14.3478 24.4908 14.7382 24.463 15.1189 24.5265C15.4996 24.59 15.8598 24.743 16.1698 24.9729L14.4675 26.6788C14.4024 26.7477 14.3668 26.8392 14.3682 26.9339C14.3696 27.0286 14.4079 27.119 14.4749 27.1859C14.5419 27.2528 14.6324 27.2909 14.7271 27.2922C14.8218 27.2934 14.9133 27.2576 14.982 27.1925L16.6835 25.491C16.952 25.8534 17.1145 26.2832 17.1529 26.7326C17.1913 27.1819 17.104 27.6331 16.9008 28.0358C16.6976 28.4384 16.3866 28.7767 16.0023 29.0128C15.618 29.2489 15.1757 29.3735 14.7247 29.3728V29.3685ZM26.6458 29.3685C26.1946 29.3696 25.752 29.2453 25.3674 29.0093C24.9828 28.7734 24.6714 28.4351 24.4681 28.0323C24.2647 27.6295 24.1774 27.1781 24.216 26.7285C24.2545 26.279 24.4173 25.849 24.6861 25.4866L26.3885 27.1881C26.4566 27.2563 26.549 27.2945 26.6454 27.2945C26.7417 27.2945 26.8341 27.2563 26.9022 27.1881C26.9703 27.12 27.0086 27.0276 27.0086 26.9313C27.0086 26.835 26.9703 26.7426 26.9022 26.6745L25.1998 24.9729C25.5098 24.7441 25.8696 24.5921 26.2497 24.5293C26.6298 24.4665 27.0194 24.4948 27.3864 24.6118C27.7535 24.7289 28.0875 24.9313 28.3612 25.2025C28.6348 25.4736 28.8402 25.8059 28.9606 26.1718C29.0809 26.5378 29.1127 26.9271 29.0533 27.3078C28.994 27.6884 28.8452 28.0496 28.6192 28.3616C28.3932 28.6736 28.0964 28.9275 27.7532 29.1026C27.41 29.2776 27.0302 29.3687 26.6449 29.3685H26.6458Z" fill="white"/>
</svg>
