<svg width="36" height="36" viewBox="0 0 36 36" fill="none" xmlns="http://www.w3.org/2000/svg">
<rect x="0.803711" y="0.596191" width="35" height="35" rx="5" fill="#59160C"/>
<path d="M30.181 5.83643H6.42683C6.32522 5.83643 6.22777 5.87679 6.15592 5.94864C6.08407 6.02049 6.0437 6.11794 6.0437 6.21956V29.9737C6.0437 30.0753 6.08407 30.1727 6.15592 30.2446C6.22777 30.3164 6.32522 30.3568 6.42683 30.3568H30.181C30.2826 30.3568 30.38 30.3164 30.4519 30.2446C30.5237 30.1727 30.5641 30.0753 30.5641 29.9737V6.21956C30.5641 6.11794 30.5237 6.02049 30.4519 5.94864C30.38 5.87679 30.2826 5.83643 30.181 5.83643ZM29.7978 29.5905H6.80996V6.60269H29.7978V29.5905Z" fill="#FAF2E7"/>
<path d="M8.34249 17.7135H17.5376C17.6392 17.7135 17.7367 17.6731 17.8085 17.6013C17.8804 17.5294 17.9208 17.432 17.9208 17.3304V8.13521C17.9208 8.0336 17.8804 7.93615 17.8085 7.8643C17.7367 7.79245 17.6392 7.75208 17.5376 7.75208H8.34249C8.24087 7.75208 8.14342 7.79245 8.07157 7.8643C7.99972 7.93615 7.95936 8.0336 7.95936 8.13521V17.3304C7.95936 17.432 7.99972 17.5294 8.07157 17.6013C8.14342 17.6731 8.24087 17.7135 8.34249 17.7135ZM11.5662 16.9472L15.1266 13.3868L14.5848 12.845L10.4827 16.9472H9.26737L17.1545 9.06009V16.9472H11.5662ZM14.314 8.51834L10.3704 12.4619L10.9121 13.0037L15.3975 8.51834H16.6128L8.72562 16.4055V8.51834H14.314Z" fill="#FAF2E7"/>
<path d="M19.0702 17.7135H28.2653C28.3669 17.7135 28.4644 17.6731 28.5362 17.6013C28.6081 17.5294 28.6484 17.432 28.6484 17.3304V8.13521C28.6484 8.0336 28.6081 7.93615 28.5362 7.8643C28.4644 7.79245 28.3669 7.75208 28.2653 7.75208H19.0702C18.9685 7.75208 18.8711 7.79245 18.7992 7.8643C18.7274 7.93615 18.687 8.0336 18.687 8.13521V17.3304C18.687 17.432 18.7274 17.5294 18.7992 17.6013C18.8711 17.6731 18.9685 17.7135 19.0702 17.7135ZM19.4533 8.51834H27.8822V16.9472H19.4533V8.51834Z" fill="#FAF2E7"/>
<path d="M8.34249 28.4412H17.5376C17.6392 28.4412 17.7367 28.4008 17.8085 28.3289C17.8804 28.2571 17.9208 28.1596 17.9208 28.058V18.8629C17.9208 18.7613 17.8804 18.6638 17.8085 18.592C17.7367 18.5201 17.6392 18.4797 17.5376 18.4797H8.34249C8.24087 18.4797 8.14342 18.5201 8.07157 18.592C7.99972 18.6638 7.95936 18.7613 7.95936 18.8629V28.058C7.95936 28.1596 7.99972 28.2571 8.07157 28.3289C8.14342 28.4008 8.24087 28.4412 8.34249 28.4412ZM8.72562 19.246H17.1545V27.6749H8.72562V19.246Z" fill="#FAF2E7"/>
<path d="M19.0702 28.4412H28.2653C28.3669 28.4412 28.4644 28.4008 28.5362 28.3289C28.6081 28.2571 28.6484 28.1596 28.6484 28.058V18.8629C28.6484 18.7613 28.6081 18.6638 28.5362 18.592C28.4644 18.5201 28.3669 18.4797 28.2653 18.4797H19.0702C18.9685 18.4797 18.8711 18.5201 18.7992 18.592C18.7274 18.6638 18.687 18.7613 18.687 18.8629V28.058C18.687 28.1596 18.7274 28.2571 18.7992 28.3289C18.8711 28.4008 18.9685 28.4412 19.0702 28.4412ZM22.2938 27.6749L25.8543 24.1145L25.3125 23.5727L21.2103 27.6749H19.995L27.8822 19.7878V27.6749H22.2938ZM25.0416 19.246L21.0981 23.1896L21.6398 23.7313L26.1251 19.246H27.3404L19.4533 27.1331V19.246H25.0416Z" fill="#FAF2E7"/>
</svg>
