<svg width="11" height="12" viewBox="0 0 11 12" fill="none" xmlns="http://www.w3.org/2000/svg">
<path d="M0.394469 9.04833H0.545044C0.5077 9.08051 0.471978 9.11461 0.438015 9.15051C0.308654 9.28444 0.20711 9.44386 0.139511 9.61913C0.0719119 9.7944 0.0396598 9.98189 0.0447012 10.1703C0.0564643 10.5425 0.209043 10.8955 0.470156 11.1544C0.731268 11.4134 1.08043 11.5581 1.44377 11.5579H10.188C10.2807 11.5579 10.3697 11.5201 10.4353 11.4529C10.5009 11.3857 10.5377 11.2945 10.5377 11.1994V10.8409C10.5374 10.7636 10.5127 10.6884 10.4672 10.6267C10.4218 10.565 10.3582 10.5199 10.2857 10.4983C10.2217 10.3845 10.188 10.2553 10.188 10.1239C10.188 9.99242 10.2217 9.86328 10.2857 9.7494C10.3582 9.72779 10.4218 9.68276 10.4672 9.62103C10.5127 9.55929 10.5374 9.48416 10.5377 9.40684V9.04833C10.5377 8.95325 10.5009 8.86206 10.4353 8.79482C10.3697 8.72759 10.2807 8.68982 10.188 8.68982H10.0614C10.0837 8.66974 10.1063 8.65002 10.1275 8.62833C10.2888 8.4652 10.4085 8.26377 10.4757 8.04189C10.5429 7.82002 10.5557 7.58457 10.5129 7.35643C10.4701 7.12828 10.373 6.9145 10.2303 6.73402C10.0875 6.55355 9.90353 6.41197 9.69462 6.32185L9.58234 5.74823C9.62457 5.68034 9.65123 5.60352 9.66032 5.52355C9.66941 5.44357 9.66069 5.36253 9.63482 5.28651C9.60894 5.21049 9.56659 5.14147 9.51095 5.08464C9.4553 5.02782 9.38781 4.98466 9.31355 4.95843V3.70525L10.2457 3.37488C10.331 3.34446 10.405 3.28756 10.4574 3.21207C10.5098 3.13658 10.5379 3.04625 10.5379 2.95363C10.5379 2.861 10.5098 2.77068 10.4574 2.69519C10.405 2.6197 10.331 2.5628 10.2457 2.53238L5.43235 0.826755C5.3408 0.794727 5.24146 0.794727 5.14991 0.826755L0.336757 2.53238C0.251404 2.5628 0.177408 2.6197 0.125043 2.69519C0.0726784 2.77068 0.0445429 2.861 0.0445429 2.95363C0.0445429 3.04625 0.0726784 3.13658 0.125043 3.21207C0.177408 3.28756 0.251404 3.34446 0.336757 3.37488L2.49308 4.13887V6.18023H0.394469C0.301705 6.18023 0.21274 6.21801 0.147146 6.28524C0.0815516 6.35247 0.0447012 6.44366 0.0447012 6.53875V6.89726C0.0450518 6.97458 0.0697795 7.04971 0.115196 7.11144C0.160612 7.17318 0.224282 7.21821 0.296709 7.23982C0.364434 7.3521 0.398432 7.48233 0.394469 7.61428C0.398331 7.74617 0.364471 7.87634 0.297059 7.98875C0.224567 8.01029 0.160819 8.0553 0.115336 8.11704C0.0698523 8.17878 0.045074 8.25394 0.0447012 8.33131V8.68982C0.0447012 8.7849 0.0815516 8.87609 0.147146 8.94333C0.21274 9.01056 0.301705 9.04833 0.394469 9.04833ZM9.13866 5.28396C9.17325 5.28396 9.20706 5.29447 9.23582 5.31417C9.26458 5.33386 9.287 5.36186 9.30023 5.39461C9.31347 5.42737 9.31693 5.46341 9.31019 5.49818C9.30344 5.53295 9.28678 5.56489 9.26233 5.58996C9.23787 5.61503 9.20671 5.63211 9.17278 5.63902C9.13886 5.64594 9.10369 5.64239 9.07174 5.62882C9.03978 5.61525 9.01247 5.59228 8.99325 5.5628C8.97404 5.53332 8.96378 5.49866 8.96378 5.46321C8.96378 5.41567 8.9822 5.37007 9.015 5.33646C9.0478 5.30284 9.09228 5.28396 9.13866 5.28396ZM9.44628 6.87575C9.45393 6.91206 9.44789 6.94999 9.42936 6.98191C9.41084 7.01384 9.3812 7.03739 9.34643 7.04783C9.21005 7.08637 9.06605 7.08637 8.92968 7.04783C8.89533 7.03733 8.8661 7.01396 8.84779 6.98238C8.82948 6.95079 8.82344 6.9133 8.83087 6.87736L9.00575 5.98108C9.09242 6.0071 9.18456 6.0071 9.27122 5.98108L9.44628 6.87575ZM8.61401 7.25577C8.67342 7.32038 8.74868 7.36743 8.83192 7.39201C9.02228 7.44709 9.2235 7.44932 9.41498 7.39846C9.44574 7.43881 9.46751 7.48556 9.47878 7.53545C9.49005 7.58533 9.49054 7.63714 9.48021 7.68724C9.46009 7.77023 9.413 7.84373 9.34669 7.89563C9.28039 7.94753 9.19881 7.97475 9.1154 7.9728H0.687924C0.725853 7.85729 0.74488 7.73615 0.744237 7.61428C0.74488 7.49241 0.725853 7.37127 0.687924 7.25577H8.61401ZM9.89399 10.4824H1.46668C1.38326 10.4843 1.30166 10.4572 1.23523 10.4054C1.16881 10.3536 1.12148 10.2803 1.101 10.1974C1.09063 10.1452 1.09168 10.0913 1.10408 10.0396C1.11647 9.98783 1.13991 9.93957 1.17269 9.89825C1.20548 9.85693 1.2468 9.82358 1.29367 9.8006C1.34055 9.77762 1.39181 9.76558 1.44377 9.76536H9.89451C9.81943 9.99817 9.81943 10.2496 9.89451 10.4824H9.89399ZM10.188 9.04833V9.40684H1.44377C1.34009 9.40702 1.23773 9.43078 1.14408 9.47641C1.05044 9.52204 0.967842 9.58841 0.902247 9.67072C0.836651 9.75302 0.789692 9.84923 0.764757 9.95239C0.739822 10.0555 0.737532 10.1631 0.758053 10.2673C0.793522 10.432 0.883443 10.5791 1.01258 10.6836C1.14173 10.7881 1.30215 10.8437 1.46668 10.8409H10.188V11.1994H1.44377C1.17144 11.1996 0.909707 11.0912 0.7139 10.8972C0.518093 10.7032 0.403547 10.4387 0.394469 10.1597C0.391004 10.0194 0.415296 9.87981 0.465881 9.74937C0.516465 9.61893 0.592295 9.50034 0.688799 9.40075C0.793348 9.28991 0.918475 9.20163 1.05681 9.14111C1.19515 9.08058 1.3439 9.04904 1.49431 9.04833H10.188ZM10.188 7.65013C10.1786 7.92904 10.064 8.19332 9.86825 8.38728C9.6725 8.58123 9.41092 8.6897 9.13866 8.68982H0.394469V8.33131H9.1154C9.27995 8.33424 9.44041 8.27872 9.56955 8.17415C9.69869 8.06959 9.78855 7.92244 9.82386 7.75769C9.84294 7.66145 9.84243 7.56222 9.82236 7.4662C9.80228 7.37018 9.76308 7.27944 9.70721 7.19966C9.74615 7.14338 9.77351 7.07958 9.78764 7.01212C9.80177 6.94467 9.80237 6.87497 9.78941 6.80727L9.78661 6.79347C9.9139 6.89443 10.0165 7.02444 10.0861 7.17315C10.1558 7.32186 10.1907 7.48519 10.188 7.65013ZM8.96378 4.95843C8.88967 4.9847 8.82233 5.02783 8.7668 5.08458C8.71127 5.14133 8.66899 5.21022 8.64313 5.2861C8.61727 5.36198 8.6085 5.44287 8.61748 5.52272C8.62646 5.60257 8.65296 5.67929 8.69498 5.74715L8.61051 6.18023H8.08936V4.13905L8.96378 3.82911V4.95843ZM0.394469 2.95363C0.393866 2.93546 0.399076 2.91758 0.409306 2.90272C0.419536 2.88787 0.434224 2.87685 0.451131 2.87135L5.26429 1.16573C5.27295 1.16267 5.28205 1.1611 5.29122 1.16107C5.30033 1.16107 5.30937 1.16265 5.31798 1.16573L10.1313 2.87135C10.1479 2.87738 10.1622 2.88852 10.1724 2.90326C10.1826 2.91799 10.188 2.93559 10.188 2.95363C10.188 2.97167 10.1826 2.98926 10.1724 3.004C10.1622 3.01873 10.1479 3.02988 10.1313 3.03591L9.12275 3.39334L6.33965 2.94144C6.33038 2.54528 5.87358 2.2366 5.29122 2.2366C4.70291 2.2366 4.24191 2.55156 4.24191 2.95363C4.24191 3.3557 4.70291 3.67065 5.29122 3.67065C5.46483 3.68114 5.63855 3.65204 5.79988 3.58546C5.96121 3.51889 6.10613 3.41648 6.22422 3.28561L8.42042 3.64233L5.31815 4.74153C5.30076 4.74771 5.28185 4.74771 5.26446 4.74153L0.451131 3.03591C0.434224 3.0304 0.419536 3.01938 0.409306 3.00453C0.399076 2.98968 0.393866 2.9718 0.394469 2.95363ZM5.99075 2.95363C5.99075 3.12284 5.69153 3.31214 5.29122 3.31214C4.89091 3.31214 4.59168 3.12284 4.59168 2.95363C4.59168 2.78441 4.89091 2.59512 5.29122 2.59512C5.69153 2.59512 5.99075 2.78441 5.99075 2.95363ZM2.84284 4.2622L5.15009 5.07978C5.2416 5.11204 5.34101 5.11204 5.43252 5.07978L7.73959 4.2622V6.18023H2.84284V4.2622ZM0.394469 6.53875H8.54039L8.48792 6.80763C8.48257 6.8372 8.47971 6.86719 8.47935 6.89726H0.394469V6.53875Z" fill="white"/>
</svg>
