<svg width="16" height="17" viewBox="0 0 16 17" fill="none" xmlns="http://www.w3.org/2000/svg">
<path d="M15.1631 16.2007L1.009 16.1583C0.814728 16.1712 0.624676 16.0975 0.489896 15.9571C0.208368 15.6769 0.207225 15.2216 0.487412 14.94C0.62269 14.804 0.806684 14.7278 0.998474 14.7281L13.3939 14.7281L0.765315 2.09955C0.478671 1.82462 0.469186 1.36938 0.74411 1.08273C0.747636 1.07911 0.751162 1.07548 0.754737 1.07191C1.02961 0.785215 1.48485 0.775631 1.77155 1.0505C1.77885 1.05751 1.78595 1.06461 1.79295 1.07191L14.4214 13.7004L14.4108 1.31555C14.4042 0.918407 14.7209 0.59114 15.118 0.584535C15.126 0.584436 15.134 0.584386 15.1418 0.584535C15.5221 0.566905 15.8446 0.8608 15.8622 1.24105C15.8632 1.26231 15.8632 1.28366 15.8622 1.30492L15.8622 15.4378C15.8659 15.5427 15.8478 15.6473 15.8092 15.745C15.7647 15.8058 15.7111 15.8594 15.6503 15.9039L15.6821 15.9993C15.5473 16.1398 15.3573 16.2135 15.1631 16.2007Z" fill="#FAF2E7"/>
</svg>
