<svg width="50" height="52" viewBox="0 0 50 52" fill="none" xmlns="http://www.w3.org/2000/svg">
<path d="M49.4969 2.01274C49.1827 1.50774 48.6901 1.15537 48.1108 1.02026C47.5314 0.885541 46.9341 0.984439 46.4291 1.29865L8.00523 25.21C7.6548 25.4284 7.54734 25.8894 7.76577 26.2398C7.9075 26.4672 8.15124 26.5926 8.40121 26.5926C8.53592 26.5926 8.67259 26.556 8.79524 26.4793L47.2191 2.56796C47.385 2.46478 47.5816 2.43247 47.7716 2.47646C47.9624 2.52085 48.124 2.63649 48.2276 2.80275C48.4406 3.14538 48.3354 3.59782 47.9928 3.81119L47.019 4.41703C47.0128 4.42092 47.0066 4.42443 47.0007 4.42832L43.6775 6.4966C43.3271 6.71464 43.2197 7.17564 43.4381 7.52606C43.6561 7.87649 44.1171 7.98395 44.4675 7.76552L46.6569 6.40315V21.858H34.0222V14.2663L41.9344 9.34242C42.2848 9.12438 42.3923 8.66338 42.1742 8.31257C41.9558 7.96215 41.4948 7.85468 41.1444 8.07311L18.7667 21.9989C18.7566 22.0052 18.7461 22.0114 18.736 22.018L4.65362 30.7817C4.63182 30.7938 4.6104 30.807 4.59016 30.821L2.75433 31.9634C2.58846 32.0666 2.39184 32.0993 2.20144 32.0549C2.01104 32.0105 1.84946 31.8949 1.74589 31.7286C1.64271 31.5628 1.61 31.3665 1.65439 31.1757C1.69878 30.9853 1.81442 30.8238 1.98067 30.7202L6.25739 28.0589C6.60821 27.8405 6.71528 27.3795 6.49724 27.0291C6.27881 26.6783 5.81781 26.5712 5.46738 26.7896L1.19066 29.4509C0.685664 29.7651 0.333294 30.2576 0.198187 30.837C0.0634684 31.4164 0.161976 32.0136 0.476578 32.5186C0.790791 33.024 1.28294 33.3764 1.86231 33.5111C2.03168 33.5508 2.20222 33.5703 2.37159 33.5703C2.78275 33.5703 3.18652 33.4554 3.54434 33.2327L4.26816 32.7826V39.4578C3.34032 39.5723 2.61961 40.365 2.61961 41.3232C2.61961 42.2814 3.3407 43.0746 4.26855 43.1886V50.5904C4.26855 51.3652 4.89892 51.9956 5.67374 51.9956H46.7465C47.5213 51.9956 48.1517 51.3652 48.1517 50.5904V43.6979C48.1517 43.2852 47.8172 42.9504 47.4041 42.9504C46.991 42.9504 46.6565 43.2852 46.6565 43.6979V50.5004H5.76369V43.2027H19.1456C19.5587 43.2027 19.8931 42.8678 19.8931 42.4551V34.4098H33.275C33.6877 34.4098 34.0226 34.0749 34.0226 33.6622V25.6169H46.6565V40.7073C46.6565 41.1204 46.9914 41.4548 47.4041 41.4548C47.8172 41.4548 48.1517 41.1204 48.1517 40.7073V22.6207C48.1521 22.6157 48.1521 22.6106 48.1521 22.6056V5.47297L48.7824 5.0805C49.8251 4.43183 50.1456 3.05544 49.4969 2.01274ZM32.5271 21.872C31.5992 21.9861 30.8785 22.7792 30.8785 23.7374C30.8785 24.696 31.5992 25.4888 32.5275 25.6028V30.6509H19.8931V23.0588L32.5271 15.1968V21.872ZM18.398 23.989V30.6649C17.4702 30.779 16.7491 31.5721 16.7491 32.5303C16.7491 33.4885 17.4702 34.2817 18.398 34.3957V39.4438H5.7633V31.8517L18.398 23.989ZM18.398 41.7075H4.49944C4.28724 41.7075 4.11475 41.535 4.11475 41.3232C4.11475 41.1114 4.28724 40.9389 4.49944 40.9389H18.398V41.7075ZM32.5275 32.9146H18.6285C18.4167 32.9146 18.2442 32.7421 18.2442 32.5303C18.2442 32.3185 18.4167 32.146 18.6285 32.146H32.5275V32.9146ZM32.758 24.1217C32.5458 24.1217 32.3737 23.9492 32.3737 23.7374C32.3737 23.5256 32.5458 23.3531 32.758 23.3531H46.6565V24.1221L32.758 24.1217Z" fill="#FAF2E7"/>
</svg>
