<svg width="46" height="52" viewBox="0 0 46 52" fill="none" xmlns="http://www.w3.org/2000/svg">
<path d="M42.1924 0.395784V0.395822L42.1946 0.39584C43.9339 0.410504 45.3445 1.83004 45.3445 3.57284V15.7877C45.3445 16.1663 45.0377 16.473 44.6592 16.473C44.2807 16.473 43.9738 16.1662 43.9738 15.7877V3.57284C43.9738 2.57671 43.1634 1.7663 42.1673 1.7663H30.1222C29.126 1.7663 28.3156 2.57671 28.3156 3.57284V48.1276C28.3156 49.1115 29.1063 49.9142 30.0856 49.9337H30.0869H30.1216C30.1284 49.9337 30.1353 49.9339 30.1431 49.9341H30.1447H42.1674C43.1635 49.9341 43.9739 49.1237 43.9739 48.1276V19.2763C43.9739 18.8978 44.2808 18.591 44.6593 18.591C45.0378 18.591 45.3446 18.8978 45.3446 19.2763V48.1276C45.3446 49.8795 43.9192 51.3048 42.1674 51.3048H30.1223C30.1142 51.3048 30.1061 51.3047 30.098 51.3046C30.0903 51.3046 30.0826 51.3045 30.0748 51.3044H30.074H16.1891C14.4373 51.3044 13.0119 49.8791 13.0119 48.1272L13.0123 31.242L13.0123 31.1798H12.9501H1.81137C1.15868 31.1798 0.627666 30.6488 0.627666 29.9961V21.7043C0.627666 21.0516 1.15868 20.5206 1.81137 20.5206H12.9502H13.0124L13.0124 20.4584L13.0119 3.57245C13.0119 1.82054 14.4373 0.395244 16.1891 0.395244H42.1673C42.1758 0.395244 42.1841 0.395425 42.1924 0.395784ZM27.4462 1.86175L27.5077 1.7659H27.3939H16.1891C15.1929 1.7659 14.3825 2.57631 14.3824 3.57244V16.0047V16.0553L14.432 16.0656C14.5771 16.0959 14.7175 16.1538 14.8455 16.239L16.0119 17.0167L16.1087 17.0812V16.9649V10.3695C16.1087 9.99091 16.4155 9.68416 16.794 9.68416C17.1725 9.68416 17.4793 9.99091 17.4793 10.3695V17.9616V17.9949L17.5071 18.0134L26.8482 24.2408L26.945 24.3053V24.189V4.92504V4.8628H26.8827H17.5416H17.4793V4.92504V6.88076C17.4793 7.25934 17.1725 7.56609 16.794 7.56609C16.4155 7.56609 16.1087 7.25934 16.1087 6.88076V4.17747C16.1087 3.7989 16.4155 3.49215 16.794 3.49215H26.886H26.9456L26.9482 3.43262C26.9733 2.85616 27.1528 2.31906 27.4462 1.86175ZM14.4321 35.6348L14.3825 35.6451V35.6957V48.1272C14.3825 49.0737 15.114 49.8524 16.0415 49.9277L16.1088 49.9332V49.8657V34.7355V34.6193L16.012 34.6838L14.8457 35.4613C14.7177 35.5466 14.5772 35.6045 14.4321 35.6348ZM17.5071 33.687L17.4793 33.7055V33.7388V49.8092V49.8714V49.8715H17.5416V49.9336H27.3932H27.507L27.4455 49.8378C27.1287 49.3437 26.9449 48.7568 26.9449 48.1275V27.5112V27.3949L26.8481 27.4594L22.5924 30.2966L22.5924 30.2966C22.2776 30.5065 21.8521 30.4215 21.6421 30.1065L21.5903 30.141L21.6421 30.1065C21.4321 29.7916 21.5171 29.3662 21.8321 29.1562L26.7136 25.9019L26.7913 25.8501L26.7136 25.7983L14.4797 17.6425L14.3829 17.578V17.6943V20.9568C14.3829 21.472 13.9637 21.8913 13.4484 21.8913H2.06055H1.99832V21.9535V29.7469V29.8091H2.06055H13.4484C13.9637 29.8091 14.3829 30.2284 14.3829 30.7437V34.0061V34.1224L14.4797 34.0579L18.8515 31.1434C19.1664 30.9335 19.592 31.0186 19.8019 31.3335L19.8536 31.2989L19.8019 31.3335C20.0118 31.6483 19.9268 32.0738 19.6118 32.2838L17.5071 33.687ZM33.0486 29.6317C31.4027 29.6317 30.0412 27.9492 30.0412 25.8502C30.0412 23.7513 31.4027 22.0688 33.0486 22.0688C34.6946 22.0688 36.0561 23.7514 36.0561 25.8502C36.0561 27.9491 34.6946 29.6317 33.0486 29.6317ZM33.0486 28.261C33.5032 28.261 33.9138 27.975 34.2077 27.5366C34.5022 27.0973 34.6855 26.4979 34.6855 25.8502C34.6855 25.2025 34.5022 24.6031 34.2077 24.1639C33.9138 23.7255 33.5032 23.4394 33.0486 23.4394C32.5941 23.4394 32.1835 23.7255 31.8896 24.1639C31.5951 24.6031 31.4118 25.2026 31.4118 25.8502C31.4118 26.4979 31.5951 27.0973 31.8896 27.5366C32.1835 27.975 32.5941 28.261 33.0486 28.261Z" fill="#FAF2E7" stroke="#FAF2E7" stroke-width="0.124473"/>
</svg>
