<svg width="52" height="52" viewBox="0 0 52 52" fill="none" xmlns="http://www.w3.org/2000/svg">
<path d="M49.1551 0.502649H2.81694C1.67668 0.460686 0.447502 1.53985 0.46953 2.84996V19.3337C0.46953 19.7465 0.804134 20.0812 1.21708 20.0812C1.63003 20.0812 1.96463 19.7465 1.96463 19.3337V2.90647L25.2384 23.4409V42.6576C25.2384 43.0704 25.573 43.4051 25.9859 43.4051C26.3989 43.4051 26.7335 43.0704 26.7335 42.6576V23.8512H50.0072V49.1882C50.0072 49.6581 49.625 50.0404 49.155 50.0404H26.7335V46.2003C26.7335 45.7875 26.3989 45.4528 25.9859 45.4528C25.573 45.4528 25.2384 45.7875 25.2384 46.2003V50.0404H2.81684C2.34688 50.0404 1.96463 49.6581 1.96463 49.1882V23.1036C1.96463 22.6908 1.63003 22.3561 1.21708 22.3561C0.804134 22.3561 0.46953 22.6908 0.46953 23.1036V49.1882C0.46953 50.4825 1.52248 51.5355 2.81684 51.5355H49.155C50.4493 51.5355 51.5023 50.4825 51.5023 49.1882V2.84996C51.5023 1.5556 50.4494 0.502649 49.1551 0.502649ZM50.0072 2.84996V20.6365L44.2939 12.0735C44.0646 11.7301 43.6004 11.6375 43.2572 11.8666C42.9138 12.0958 42.8211 12.5599 43.0503 12.9033L44.545 15.1436H36.9184L32.1662 9.36671H40.6905L41.1148 10.0026C41.344 10.3461 41.8082 10.4387 42.1516 10.2095C42.495 9.9804 42.5877 9.51622 42.3584 9.17285L37.571 1.99765H49.1549C49.625 1.99775 50.0072 2.38 50.0072 2.84996ZM34.5568 22.3561L28.9651 16.6387H36.2123L40.9156 22.3561H34.5568ZM27.5029 15.1436L21.853 9.36671H30.2301L34.9824 15.1436H27.5029ZM11.5465 9.36681H19.7616L25.4114 15.1437H18.0941L11.5465 9.36681ZM24.1682 1.99775L29.0003 7.87171H20.3908L14.646 1.99775H24.1682ZM39.6929 7.87171H30.9362L26.1042 1.99775H35.7737L39.6929 7.87171ZM12.5546 1.99775L18.2994 7.87171H9.85209L3.1945 1.99775H12.5546ZM26.2686 22.3561L19.7885 16.6387H26.8737L32.4654 22.3561H26.2686ZM42.8516 22.3561L38.1483 16.6387H45.5426L49.3574 22.3561H42.8516Z" fill="#FAF2E7"/>
</svg>
