<svg width="52" height="52" viewBox="0 0 52 52" fill="none" xmlns="http://www.w3.org/2000/svg">
<path d="M24.9225 25.2252H25.047V25.1008V17.6583C25.047 17.1423 25.4697 16.7196 25.9858 16.7196C26.5018 16.7196 26.9245 17.1423 26.9245 17.6583V31.48C26.9245 31.996 26.5018 32.4188 25.9858 32.4188C25.4697 32.4188 25.047 31.996 25.047 31.48V27.2272V27.1027H24.9225H16.4169C15.9009 27.1027 15.4781 26.68 15.4781 26.164C15.4781 25.648 15.9009 25.2252 16.4169 25.2252H24.9225ZM42.9971 2.64892H42.8726V2.77339V7.02622C42.8726 7.54224 42.4499 7.96496 41.9339 7.96496C41.4179 7.96496 40.9951 7.54224 40.9951 7.02622V1.71018C40.9951 1.19416 41.4179 0.771446 41.9339 0.771446H48.3238C50.0088 0.771446 51.3783 2.15051 51.3783 3.8366V48.4914C51.3783 50.1769 49.9987 51.5565 48.3131 51.5565H3.65838C1.97283 51.5565 0.593223 50.1769 0.593223 48.4914V3.8366C0.593223 2.15105 1.97283 0.771446 3.65838 0.771446H34.4914C35.0074 0.771446 35.4302 1.19416 35.4302 1.71018V7.02622C35.4302 7.54224 35.0074 7.96496 34.4914 7.96496C33.9754 7.96496 33.5527 7.54224 33.5527 7.02622V2.77339V2.64892H33.4282H27.049H26.9245V2.77339V12.3423C26.9245 12.8583 26.5018 13.281 25.9858 13.281C25.4697 13.281 25.047 12.8583 25.047 12.3423V2.77339V2.64892H24.9225H3.65838C3.00487 2.64892 2.47069 3.18309 2.47069 3.8366V25.1008V25.2252H2.59517H12.1321C12.6482 25.2252 13.0709 25.648 13.0709 26.164C13.0709 26.68 12.6482 27.1027 12.1321 27.1027H2.59517H2.47069V27.2272V48.4914C2.47069 49.1449 3.00487 49.679 3.65838 49.679H24.9225H25.047V49.5546V37.8593C25.047 37.3433 25.4697 36.9205 25.9858 36.9205C26.5018 36.9205 26.9245 37.3433 26.9245 37.8593V49.5546V49.679H27.049H48.3131C48.9666 49.679 49.5008 49.1449 49.5008 48.4914V32.5432V32.4188H49.3763H33.4282C32.9122 32.4188 32.4895 31.996 32.4895 31.48C32.4895 30.964 32.9122 30.5413 33.4282 30.5413H49.3763H49.5008V30.4168V25.1008V24.9763H49.3763H38.7443C38.2282 24.9763 37.8055 24.5536 37.8055 24.0376C37.8055 23.5215 38.2282 23.0988 38.7443 23.0988H49.3763H49.5008V22.9743V3.8366C49.5008 3.1839 48.9674 2.64892 48.3238 2.64892H42.9971Z" fill="#FAF2E7" stroke="#FAF2E7" stroke-width="0.248946"/>
</svg>
