<svg width="172" height="134" viewBox="0 0 172 134" fill="none" xmlns="http://www.w3.org/2000/svg">
<g filter="url(#filter0_d_522_486)">
<path d="M96.2481 124.443H95.3515L93.1089 121.598V124.443H92.3209V121.598L90.0782 124.443H89.1895L91.5587 121.412L89.2747 118.517H90.1635L92.3209 121.233V118.517H93.1089V121.233L95.2663 118.517H96.1628L93.8685 121.412L96.2455 124.443H96.2481Z" fill="white"/>
<path d="M100.699 124.443V120.024L97.6532 124.443H97.0176V118.517H97.8056V122.944L100.852 118.517H101.487V124.443H100.699Z" fill="white"/>
<path d="M102.24 123.733C102.431 123.762 102.602 123.752 102.749 123.7C102.896 123.648 103.018 123.553 103.119 123.408C103.217 123.263 103.292 123.067 103.338 122.816C103.387 122.565 103.411 122.253 103.411 121.88V118.521H107.32V124.447H106.532V119.265H104.196V121.88C104.196 122.423 104.144 122.865 104.044 123.214C103.943 123.56 103.803 123.829 103.63 124.018C103.455 124.206 103.25 124.333 103.013 124.395C102.775 124.457 102.519 124.475 102.243 124.447V123.736L102.24 123.733Z" fill="white"/>
<path d="M108.273 121.48C108.273 120.622 108.571 119.898 109.162 119.304C109.754 118.707 110.48 118.407 111.338 118.407C112.195 118.407 112.919 118.707 113.513 119.304C114.11 119.896 114.41 120.622 114.41 121.48C114.41 122.338 114.11 123.056 113.513 123.656C112.921 124.253 112.195 124.553 111.338 124.553C110.48 124.553 109.754 124.253 109.162 123.656C108.571 123.059 108.273 122.333 108.273 121.48ZM113.622 121.485C113.622 120.829 113.402 120.281 112.963 119.839C112.534 119.392 111.994 119.169 111.34 119.169C110.687 119.169 110.149 119.392 109.71 119.839C109.276 120.286 109.059 120.834 109.059 121.485C109.059 122.136 109.276 122.679 109.71 123.131C110.149 123.573 110.692 123.793 111.34 123.793C111.989 123.793 112.529 123.573 112.963 123.131C113.402 122.684 113.622 122.136 113.622 121.485Z" fill="white"/>
<path d="M119.039 124.444V120.025L115.993 124.444H115.357V118.518H116.145V122.945L119.192 118.518H119.827V124.444H119.039ZM116.45 117.885V117.241H118.734V117.885H116.45Z" fill="white"/>
<path d="M127.516 124.443H126.552L123.997 121.598V124.443H123.209V118.517H123.997V121.192L126.467 118.517H127.431L124.816 121.396L127.516 124.443Z" fill="white"/>
<path d="M127.4 121.48C127.4 120.622 127.698 119.898 128.289 119.304C128.881 118.707 129.607 118.407 130.465 118.407C131.322 118.407 132.046 118.707 132.64 119.304C133.237 119.896 133.537 120.622 133.537 121.48C133.537 122.338 133.237 123.056 132.64 123.656C132.048 124.253 131.322 124.553 130.465 124.553C129.607 124.553 128.881 124.253 128.289 123.656C127.698 123.059 127.4 122.333 127.4 121.48ZM132.749 121.485C132.749 120.829 132.529 120.281 132.09 119.839C131.661 119.392 131.121 119.169 130.467 119.169C129.814 119.169 129.276 119.392 128.837 119.839C128.403 120.286 128.186 120.834 128.186 121.485C128.186 122.136 128.403 122.679 128.837 123.131C129.276 123.573 129.819 123.793 130.467 123.793C131.116 123.793 131.656 123.573 132.09 123.131C132.529 122.684 132.749 122.136 132.749 121.485Z" fill="white"/>
<path d="M140.035 118.518V124.444H139.247V119.813L137.309 123.038H137.208L135.27 119.821V124.442H134.482V118.516H135.371L137.262 121.648L139.143 118.516H140.032L140.035 118.518Z" fill="white"/>
<path d="M145.595 118.517V124.443H144.807V119.261H142.081V124.443H141.293V118.517H145.592H145.595Z" fill="white"/>
<path d="M146.345 123.733C146.536 123.762 146.707 123.752 146.851 123.7C146.996 123.648 147.12 123.553 147.218 123.408C147.316 123.263 147.391 123.067 147.438 122.816C147.484 122.565 147.51 122.253 147.51 121.88V118.521H151.419V124.447H150.631V119.265H148.296V121.88C148.296 122.423 148.244 122.865 148.143 123.214C148.043 123.56 147.903 123.829 147.727 124.018C147.552 124.206 147.347 124.333 147.11 124.395C146.872 124.457 146.616 124.475 146.34 124.447V123.736L146.345 123.733Z" fill="white"/>
<path d="M153.479 123.699H156.231V124.443H152.693V118.517H156.19V119.261H153.482V121.081H155.978V121.817H153.482V123.696L153.479 123.699Z" fill="white"/>
<path d="M161.487 124.443H160.523L157.968 121.598V124.443H157.18V118.517H157.968V121.192L160.438 118.517H161.401L158.787 121.396L161.487 124.443Z" fill="white"/>
<path d="M164.473 124.553C163.571 124.553 162.827 124.255 162.248 123.664C161.662 123.077 161.367 122.348 161.367 121.48C161.367 120.611 161.659 119.883 162.248 119.296C162.83 118.704 163.571 118.407 164.473 118.407C164.744 118.407 165.005 118.441 165.256 118.508C165.506 118.575 165.741 118.671 165.964 118.795C166.183 118.919 166.385 119.069 166.566 119.247C166.746 119.425 166.901 119.624 167.031 119.844L166.346 120.242C166.175 119.914 165.925 119.653 165.589 119.459C165.253 119.265 164.884 119.167 164.475 119.167C163.788 119.167 163.227 119.386 162.799 119.828C162.37 120.265 162.155 120.816 162.155 121.482C162.155 122.149 162.37 122.692 162.799 123.129C163.227 123.571 163.786 123.79 164.475 123.79C164.881 123.79 165.253 123.692 165.589 123.498C165.925 123.304 166.178 123.046 166.346 122.723L167.031 123.113C166.783 123.552 166.429 123.904 165.974 124.168C165.522 124.423 165.023 124.553 164.475 124.553H164.473Z" fill="white"/>
<path d="M8.28376 118.517V119.261H6.53202V124.443H5.74399V119.261H4V118.517H8.28117H8.28376Z" fill="white"/>
<path d="M13.4645 118.517L11.3665 122.047V122.251H12.5163V122.962H11.3665V124.443H10.5785V122.962H9.42875V122.251H10.5785V122.04L8.48828 118.517H9.36932L10.9764 121.293L12.5834 118.517H13.4645Z" fill="white"/>
<path d="M16.3189 118.517C16.8614 118.517 17.3162 118.701 17.6856 119.068C18.0525 119.435 18.236 119.887 18.236 120.422C18.236 120.957 18.0525 121.409 17.6856 121.776C17.3187 122.143 16.8614 122.326 16.3189 122.326H14.9521V124.443H14.1641V118.517H16.3189ZM16.3137 121.59C16.6418 121.59 16.9105 121.479 17.125 121.259C17.3394 121.029 17.4479 120.747 17.4479 120.422C17.4479 120.254 17.4195 120.096 17.3627 119.951C17.3058 119.807 17.2283 119.685 17.125 119.584C17.0242 119.484 16.9028 119.404 16.7658 119.344C16.6263 119.285 16.4765 119.256 16.3137 119.256H14.9521V121.593H16.3137V121.59Z" fill="white"/>
<path d="M18.6842 121.14H19.3017V118.517H22.6269V119.261H20.0872V121.14H21.7717V121.851H20.0872V124.44H19.2991V121.851H18.6816V121.14H18.6842Z" fill="white"/>
<path d="M23.4062 124.443V118.517H24.1943V120.634H25.561C26.1036 120.634 26.5584 120.817 26.9278 121.184C27.2947 121.551 27.4781 122.003 27.4781 122.538C27.4781 123.073 27.2947 123.533 26.9278 123.9C26.5661 124.262 26.1114 124.443 25.561 124.443H23.4062ZM24.1943 123.707H25.5559C25.7187 123.707 25.8711 123.678 26.008 123.619C26.145 123.559 26.2664 123.479 26.3672 123.378C26.4679 123.277 26.548 123.153 26.6049 123.011C26.6617 122.867 26.6901 122.712 26.6901 122.541C26.6901 122.37 26.6617 122.215 26.6049 122.071C26.548 121.926 26.4705 121.804 26.3672 121.704C26.2664 121.603 26.145 121.523 26.008 121.463C25.8685 121.404 25.7187 121.375 25.5559 121.375H24.1943V123.712V123.707ZM28.0698 124.443V118.517H28.8578V124.443H28.0698Z" fill="white"/>
<path d="M33.7913 118.517H34.5793V124.443H33.7913V121.776H30.913V124.443H30.125V118.517H30.913V121.032H33.7913V118.517Z" fill="white"/>
<path d="M42.3629 118.517L40.265 122.047V124.443H39.4769V122.04L37.3867 118.517H38.2678L39.8748 121.293L41.4819 118.517H42.3629Z" fill="white"/>
<path d="M46.7443 124.444V120.025L43.6981 124.444H43.0625V118.518H43.8505V122.945L46.8967 118.518H47.5323V124.444H46.7443ZM44.1554 117.885V117.241H46.4394V117.885H44.1554Z" fill="white"/>
<path d="M55.225 124.443H54.2613L51.706 121.598V124.443H50.918V118.517H51.706V121.192L54.176 118.517H55.1397L52.525 121.396L55.225 124.443Z" fill="white"/>
<path d="M56.7153 123.699H59.4677V124.443H55.9297V118.517H59.4264V119.261H56.7179V121.081H59.2144V121.817H56.7179V123.696L56.7153 123.699Z" fill="white"/>
<path d="M66.3778 118.517H67.1659V124.443H60.4121V118.517H61.2001V123.699H63.4014V118.517H64.1895V123.699H66.3804V118.517H66.3778Z" fill="white"/>
<path d="M69.2231 123.699H71.9755V124.443H68.4375V118.517H71.9342V119.261H69.2257V121.081H71.7222V121.817H69.2257V123.696L69.2231 123.699Z" fill="white"/>
<path d="M76.5842 118.517H77.3722V124.443H76.5842V121.776H73.706V124.443H72.918V118.517H73.706V121.032H76.5842V118.517Z" fill="white"/>
<path d="M78.6328 118.517H79.4211V124.443H78.6328V118.517Z" fill="white"/>
<path d="M84.7082 117.365H83.9199V125.594H84.7082V117.365Z" fill="white"/>
<path fill-rule="evenodd" clip-rule="evenodd" d="M48.9121 65.6051L67.7376 65.6025C68.8459 65.6024 69.9503 65.4717 71.0281 65.2134C73.0131 64.7373 74.5024 64.0933 76.0538 63.0399C76.8378 62.5074 77.5599 61.8892 78.2067 61.1966L78.9878 60.3602C79.6847 59.6139 80.2776 58.7769 80.7503 57.8718C81.142 57.1217 81.6591 55.8781 81.8992 55.1083C82.189 54.1788 82.3625 53.217 82.4155 52.2449L82.4608 51.4164C82.5233 50.2725 82.4402 49.1252 82.2133 48.0023C81.9865 46.8789 81.6247 45.787 81.1358 44.7504L81.0466 44.5612C80.5922 43.5977 80.0389 42.684 79.3955 41.835C78.753 40.9869 78.0064 40.2228 77.1733 39.5609L76.8342 39.2915C75.9448 38.5847 74.9775 37.9819 73.9512 37.4949C72.9252 37.008 71.8447 36.6455 70.7326 36.4151L70.079 36.2797C69.102 36.0773 68.1012 36.0143 67.1065 36.0927C66.1158 36.1708 65.1489 36.436 64.2569 36.8742L64.0127 36.9942C63.1921 37.3974 62.4516 37.9462 61.8269 38.6138C61.2012 39.2828 60.6792 40.0579 60.2908 40.8877L60.2442 40.9872C59.8837 41.7579 59.6589 42.585 59.5798 43.4321C59.5007 44.2791 59.5682 45.1334 59.7794 45.9574L59.8512 46.2377C60.0209 46.9004 60.2826 47.5362 60.6285 48.1264C60.9152 48.6159 61.5358 49.4134 62.0077 49.8989L62.0879 49.9814C62.6027 50.5111 63.2017 50.9518 63.8605 51.2857C64.5205 51.6201 65.2251 51.858 65.9527 51.992L66.181 52.034C66.9508 52.1759 67.5121 52.8433 67.52 53.626L67.5364 55.2428C67.553 56.8733 67.5754 58.3199 67.5864 58.4573C67.5969 58.589 67.4881 58.6995 67.3562 58.6909L66.6067 58.6422C63.1171 58.4159 59.7544 56.8699 57.2697 54.3503C56.511 53.5808 55.8396 52.7297 55.268 51.8126L55.1281 51.5881C54.556 50.6702 54.097 49.6865 53.761 48.6585C53.4254 47.6315 53.2326 46.5633 53.1881 45.4838L53.1218 43.8741C53.0813 42.8926 53.1749 41.9102 53.3999 40.954C53.6252 39.9964 53.957 39.067 54.3892 38.1833L54.6434 37.6636C55.242 36.4397 56.0205 35.3082 56.9504 34.3123L57.0727 34.1814C57.7926 33.4106 57.7896 32.2129 57.0658 31.4457L56.7294 31.0891C56.0973 30.419 55.5375 29.6842 55.0592 28.8969C54.5809 28.1097 54.1858 27.2749 53.8801 26.406L53.7778 26.1152C53.4058 25.0578 53.2158 23.9451 53.2158 22.8242V20.1504C53.2158 19.071 53.3991 17.9994 53.758 16.9814C54.1185 15.9586 54.5808 14.9745 55.138 14.0441L55.1526 14.0197C55.7191 13.074 56.3963 12.1993 57.17 11.4141L57.4305 11.1496C58.1704 10.3988 59.0037 9.74618 59.9099 9.20778C62.1508 7.87658 64.7237 7.04604 66.6567 7.03004C67.1248 7.02619 67.5064 7.40464 67.5064 7.87282V12.644C67.5064 13.0809 67.1882 13.4526 66.7566 13.5201C63.1113 14.0895 60.5465 16.4456 59.7106 19.9925L59.7009 20.0335C59.5399 20.7167 59.4945 21.422 59.5666 22.1202C59.6388 22.8198 59.8091 23.5058 60.0726 24.158L60.2557 24.6114C60.5255 25.2793 60.8847 25.9076 61.3233 26.4791C61.687 26.9529 62.3686 27.6353 62.8382 27.9956C63.4036 28.4297 64.0348 28.7707 64.7079 29.0055L65.1493 29.1595C66.1113 29.4949 67.1304 29.6358 68.1473 29.574L68.9441 29.5255C69.9149 29.4664 70.8753 29.2922 71.8051 29.0065C72.5748 28.77 73.9244 28.2064 74.8042 27.7541C75.8639 27.2091 76.8316 26.5011 77.6718 25.6561L78.8664 24.4547C79.4881 23.8294 80.0287 23.1284 80.4754 22.3681C80.8455 21.7383 81.4185 20.4393 81.7486 19.4814C82.1469 18.3261 82.3806 17.1204 82.4429 15.8999L82.4838 15.0987C82.5315 14.165 82.4748 13.2289 82.3147 12.3078C82.1546 11.3864 81.8988 10.4841 81.5515 9.61571L81.4801 9.43711C81.0853 8.44992 80.5896 7.50613 80.0009 6.62076L79.987 6.59978C79.3895 5.7011 78.6875 4.87652 77.8957 4.14334L77.6975 3.95979C76.7752 3.10611 75.7364 2.38775 74.6122 1.82623L74.4561 1.74827C73.4378 1.23982 72.065 0.671596 71.4052 0.485653C70.609 0.261269 69.7864 0.144653 68.9592 0.138921L48.9121 0V65.6051ZM101.596 0.225533C99.8859 0.482654 98.86 0.830546 96.9974 1.78485C95.8052 2.39578 94.7167 3.19071 93.7719 4.1404L92.859 5.05788C92.1552 5.76524 91.5452 6.5601 91.044 7.42292C90.5421 8.28711 90.1289 9.19985 89.8107 10.1472L89.752 10.322C89.3962 11.3813 89.2147 12.4914 89.2147 13.6089V16.0324C89.2147 17.1499 89.3962 18.26 89.752 19.3193L89.817 19.5129C90.1309 20.4476 90.5422 21.3467 91.044 22.1954C91.5459 23.0441 92.1364 23.8371 92.8055 24.5612L93.2324 25.0232C93.9559 25.8062 94.7708 26.4995 95.6596 27.0883C97.2895 28.1682 99.1347 28.9603 100.884 29.331C101.756 29.5159 102.645 29.6102 103.537 29.6124L103.832 29.6131C104.676 29.6151 105.516 29.4785 106.316 29.2088C106.981 28.9847 107.856 28.5926 108.26 28.3371C109.279 27.6923 110.575 26.2377 111.162 25.0789C111.489 24.4323 111.727 23.7437 111.867 23.0325L111.897 22.8764C112.057 22.0645 112.066 21.2302 111.924 20.415L111.864 20.0668C111.736 19.3356 111.501 18.6275 111.165 17.9655C110.83 17.303 110.402 16.6916 109.895 16.1493L109.774 16.0203C109.188 15.3935 108.5 14.867 107.741 14.4646L107.66 14.4212C106.954 14.0465 106.194 13.7824 105.408 13.6384C104.756 13.5189 104.193 13.4211 104.158 13.4211C104.124 13.4211 104.095 11.9685 104.095 10.1933V8.41583C104.095 7.6376 104.764 7.02783 105.539 7.09982C106.498 7.18894 107.443 7.39263 108.354 7.70653L108.64 7.8052C109.552 8.1195 110.814 8.67934 111.445 9.04943C112.207 9.49615 112.909 10.0378 113.535 10.6613L114.707 11.8297C115.565 12.6855 116.286 13.6691 116.844 14.7455L116.893 14.8406C117.419 15.8563 117.82 16.9321 118.086 18.0445C118.353 19.1571 118.488 20.2971 118.489 21.4413L118.49 21.7655C118.49 22.745 118.385 23.7216 118.174 24.6782C117.964 25.6343 117.643 26.5627 117.218 27.4448L116.991 27.9166C116.416 29.1096 115.667 30.2103 114.769 31.1824L114.525 31.4463C113.809 32.2203 113.809 33.4145 114.524 34.1887L114.785 34.471C115.454 35.1952 116.045 35.9882 116.547 36.8369C117.048 37.6854 117.455 38.5863 117.761 39.5236L117.823 39.713C118.168 40.7744 118.368 41.8779 118.417 42.9931L118.471 44.2047C118.516 45.2451 118.425 46.2871 118.199 47.3037C117.973 48.3209 117.622 49.3064 117.156 50.2382L116.949 50.6515C116.346 51.8557 115.567 52.963 114.636 53.9367L114.181 54.413C113.416 55.2143 112.552 55.9157 111.611 56.5005L111.536 56.547C110.644 57.1012 109.69 57.5491 108.694 57.8814C107.869 58.1567 106.699 58.4381 106.095 58.5066C105.49 58.5752 104.792 58.6726 104.545 58.723C104.313 58.7704 104.095 58.5928 104.095 58.3556V53.207C104.095 52.6596 104.496 52.1945 105.037 52.1134C106.38 51.9119 107.848 51.3109 108.914 50.5263C109.523 50.0781 110.049 49.5274 110.469 48.8988L110.651 48.6263C111.19 47.8182 111.575 46.9171 111.786 45.9686L111.842 45.717C112.043 44.8159 112.063 43.8841 111.9 42.9754L111.884 42.8847C111.731 42.0317 111.457 41.2051 111.07 40.43C110.684 39.6569 110.163 38.9589 109.532 38.3686L109.518 38.356C108.357 37.2698 107.318 36.7141 105.645 36.2855C104.817 36.0734 103.961 36.0014 103.11 36.0723L102.881 36.0913C98.924 36.421 95.4706 38.1081 92.882 40.9762C92.2864 41.6362 91.4962 42.6781 91.1262 43.2917C90.6787 44.0334 90.3094 44.8194 90.0241 45.6372L89.8421 46.1588C89.4371 47.3201 89.2071 48.5353 89.1598 49.7643L89.1199 50.8007C89.0755 51.9523 89.1948 53.1044 89.4743 54.2226C89.7543 55.343 90.1535 56.4302 90.665 57.4657L90.7511 57.6399C91.2324 58.6143 91.8323 59.5254 92.5371 60.3527C94.3662 62.4996 96.7876 64.1053 99.5966 65.0344C100.524 65.3411 101.494 65.5002 102.47 65.5059L122.689 65.6243V0.0251937L103.607 0.0726631C102.934 0.0743373 102.262 0.125432 101.596 0.225533ZM84.8333 27.4822C84.2207 28.3405 83.5212 29.1335 82.746 29.8483L82.357 30.2069C81.5019 30.9953 80.42 31.8824 79.953 32.1779C79.4857 32.4734 79.1036 32.7601 79.1036 32.8151C79.1036 32.8701 79.5075 33.1702 80.0012 33.4821C80.4946 33.794 81.5797 34.6852 82.412 35.4625L82.7861 35.8119C83.5437 36.5193 84.2286 37.3007 84.8307 38.1445C85.3285 38.8423 85.7606 39.4131 85.7908 39.4131C85.821 39.4131 86.3028 38.7985 86.8615 38.0471C87.9539 36.5782 89.8815 34.6834 91.3735 33.6119C91.8823 33.2464 92.2988 32.8845 92.2988 32.8077C92.2988 32.7312 91.9353 32.4278 91.4912 32.1339C90.325 31.3622 87.8745 28.9843 86.8787 27.6581C86.4074 27.0305 85.9617 26.4437 85.8882 26.3541C85.8209 26.2719 85.6938 26.2761 85.6321 26.3626L84.8333 27.4822Z" fill="white"/>
</g>
<path d="M19.5087 99.9275C21.7191 101.201 22.8244 103.123 22.8244 105.694C22.8244 107.832 22.0675 109.586 20.5538 110.956C19.0402 112.325 17.1781 113.01 14.9676 113.01H4.26367V87.782H14.2108C16.3492 87.782 18.1632 88.4547 19.6528 89.8002C21.1425 91.1457 21.8873 92.8396 21.8873 94.8819C21.8873 96.9962 21.0944 98.6781 19.5087 99.9275ZM9.23722 92.4311V97.9813H14.2108C14.9796 97.9813 15.6163 97.717 16.1209 97.1885C16.6495 96.6599 16.9138 95.9991 16.9138 95.2062C16.9138 94.4134 16.6615 93.7526 16.1569 93.224C15.6524 92.6954 15.0037 92.4311 14.2108 92.4311H9.23722ZM14.9676 108.361C15.8086 108.361 16.5053 108.085 17.0579 107.532C17.6106 106.955 17.8869 106.235 17.8869 105.37C17.8869 104.529 17.6106 103.832 17.0579 103.279C16.5053 102.703 15.8086 102.414 14.9676 102.414H9.23722V108.361H14.9676Z" fill="white"/>
<path d="M41.5822 113.01L40.0685 108.469H30.0133L28.4996 113.01H23.1296L31.9594 87.782H38.1223L46.9882 113.01H41.5822ZM31.599 103.82H38.5188L35.0589 93.5124L31.599 103.82Z" fill="white"/>
<path d="M48.717 87.782H53.6906V113.01H48.717V87.782Z" fill="white"/>
<path d="M81.2461 87.782V113.01H76.3086V96.6478L69.2087 108.361H68.632L61.5321 96.6839V113.01H56.5586V87.782H61.6763L68.9204 99.7113L76.1284 87.782H81.2461Z" fill="white"/>
<path d="M88.3255 85.4754V81.6912H98.7771V85.4754H88.3255ZM93.5513 113.515C90.7402 113.515 88.4336 112.722 86.6316 111.136C84.8296 109.55 83.9286 107.424 83.9286 104.757V87.782H88.8661V104.36C88.8661 105.682 89.2385 106.727 89.9833 107.496C90.7522 108.265 91.9415 108.649 93.5513 108.649C95.1611 108.649 96.3384 108.265 97.0833 107.496C97.8521 106.727 98.2365 105.682 98.2365 104.36V87.782H103.21V104.757C103.21 107.424 102.309 109.55 100.507 111.136C98.7051 112.722 96.3865 113.515 93.5513 113.515Z" fill="white"/>
<path d="M119.728 113.01L114.646 104.252H110.862V113.01H105.889V87.782H115.98C118.31 87.782 120.293 88.5989 121.927 90.2327C123.56 91.8665 124.377 93.8367 124.377 96.1433C124.377 97.7291 123.933 99.1827 123.044 100.504C122.155 101.826 120.977 102.823 119.512 103.495L125.098 113.01H119.728ZM110.862 92.4311V99.8915H115.98C116.436 99.8915 116.869 99.7954 117.277 99.6031C117.71 99.4109 118.082 99.1466 118.395 98.8103C118.707 98.4499 118.947 98.0414 119.115 97.5849C119.308 97.1284 119.404 96.6478 119.404 96.1433C119.404 95.6387 119.308 95.1582 119.115 94.7017C118.947 94.2452 118.707 93.8487 118.395 93.5124C118.082 93.176 117.71 92.9117 117.277 92.7195C116.869 92.5273 116.436 92.4311 115.98 92.4311H110.862Z" fill="white"/>
<path d="M142.443 113.01L140.929 108.469H130.874L129.36 113.01H123.99L132.82 87.782H138.983L147.849 113.01H142.443ZM132.46 103.82H139.379L135.919 93.5124L132.46 103.82Z" fill="white"/>
<path d="M149.184 95.7471C149.184 90.962 152.97 87.6399 158.358 87.6399C163.677 87.6399 167.188 90.7382 167.188 94.8693C167.188 97.9159 165.691 99.7921 161.491 103.803L156.275 108.794V108.898H167.532V113.029H149.476V109.466L158.272 101.135C161.422 98.1053 162.128 96.9176 162.128 95.1963C162.128 93.1996 160.596 91.6849 158.358 91.6849C155.879 91.6849 154.003 93.3546 154.003 95.7471H149.184Z" fill="white"/>
<defs>
<filter id="filter0_d_522_486" x="0" y="0" width="171.031" height="133.594" filterUnits="userSpaceOnUse" color-interpolation-filters="sRGB">
<feFlood flood-opacity="0" result="BackgroundImageFix"/>
<feColorMatrix in="SourceAlpha" type="matrix" values="0 0 0 0 0 0 0 0 0 0 0 0 0 0 0 0 0 0 127 0" result="hardAlpha"/>
<feOffset dy="4"/>
<feGaussianBlur stdDeviation="2"/>
<feComposite in2="hardAlpha" operator="out"/>
<feColorMatrix type="matrix" values="0 0 0 0 0 0 0 0 0 0 0 0 0 0 0 0 0 0 0.25 0"/>
<feBlend mode="normal" in2="BackgroundImageFix" result="effect1_dropShadow_522_486"/>
<feBlend mode="normal" in="SourceGraphic" in2="effect1_dropShadow_522_486" result="shape"/>
</filter>
</defs>
</svg>
