<svg width="285" height="73" viewBox="0 0 285 73" fill="none" xmlns="http://www.w3.org/2000/svg">
<path d="M120.851 32.0865C123.669 33.7097 125.078 36.16 125.078 39.4372C125.078 42.1631 124.113 44.3989 122.183 46.1447C120.254 47.8905 117.88 48.7634 115.062 48.7634H101.418V16.604H114.098C116.824 16.604 119.136 17.4616 121.035 19.1768C122.934 20.8919 123.883 23.0512 123.883 25.6546C123.883 28.3499 122.873 30.4938 120.851 32.0865ZM107.758 22.5305V29.6056H114.098C115.078 29.6056 115.889 29.2687 116.533 28.5949C117.206 27.9211 117.543 27.0788 117.543 26.0681C117.543 25.0574 117.222 24.2151 116.579 23.5413C115.935 22.8674 115.108 22.5305 114.098 22.5305H107.758ZM115.062 42.8369C116.134 42.8369 117.023 42.4847 117.727 41.7802C118.431 41.0451 118.784 40.1263 118.784 39.0237C118.784 37.9517 118.431 37.0635 117.727 36.3591C117.023 35.624 116.134 35.2565 115.062 35.2565H107.758V42.8369H115.062Z" fill="#F6F4F2"/>
<path d="M148.989 48.7634L147.06 42.9747H134.242L132.312 48.7634H125.467L136.723 16.604H144.579L155.88 48.7634H148.989ZM136.263 37.0482H145.084L140.674 23.9088L136.263 37.0482Z" fill="#F6F4F2"/>
<path d="M158.084 16.604H164.424V48.7634H158.084V16.604Z" fill="#F6F4F2"/>
<path d="M199.55 16.604V48.7634H193.256V27.9057L184.206 42.8369H183.471L174.42 27.9517V48.7634H168.08V16.604H174.604L183.838 31.8108L193.027 16.604H199.55Z" fill="#F6F4F2"/>
<path d="M208.575 13.6637V8.83984H221.898V13.6637H208.575ZM215.236 49.4066C211.653 49.4066 208.713 48.3959 206.415 46.3744C204.118 44.353 202.97 41.6424 202.97 38.2427V16.604H209.264V37.7373C209.264 39.4219 209.739 40.7542 210.688 41.7343C211.668 42.7144 213.184 43.2044 215.236 43.2044C217.288 43.2044 218.789 42.7144 219.739 41.7343C220.719 40.7542 221.209 39.4219 221.209 37.7373V16.604H227.549V38.2427C227.549 41.6424 226.4 44.353 224.103 46.3744C221.806 48.3959 218.85 49.4066 215.236 49.4066Z" fill="#F6F4F2"/>
<path d="M248.605 48.7634L242.127 37.5995H237.303V48.7634H230.963V16.604H243.827C246.798 16.604 249.325 17.6454 251.407 19.7281C253.49 21.8108 254.531 24.3223 254.531 27.2626C254.531 29.284 253.965 31.137 252.832 32.8215C251.698 34.5061 250.198 35.7771 248.329 36.6347L255.45 48.7634H248.605ZM237.303 22.5305V32.0405H243.827C244.409 32.0405 244.96 31.918 245.481 31.673C246.032 31.428 246.507 31.0911 246.905 30.6623C247.303 30.2028 247.609 29.6822 247.824 29.1002C248.069 28.5183 248.191 27.9058 248.191 27.2626C248.191 26.6194 248.069 26.0068 247.824 25.4249C247.609 24.843 247.303 24.3376 246.905 23.9088C246.507 23.48 246.032 23.1431 245.481 22.8981C244.96 22.6531 244.409 22.5305 243.827 22.5305H237.303Z" fill="#F6F4F2"/>
<path d="M277.56 48.7634L275.631 42.9747H262.813L260.883 48.7634H254.038L265.294 16.604H273.15L284.451 48.7634H277.56ZM264.834 37.0482H273.655L269.245 23.9088L264.834 37.0482Z" fill="#F6F4F2"/>
<path d="M204.985 62.8779H203.979L201.461 59.6842V62.8779H200.576V59.6842L198.058 62.8779H197.061L199.721 59.4753L197.156 56.2266H198.154L200.576 59.2752V56.2266H201.461V59.2752L203.883 56.2266H204.89L202.314 59.4753L204.982 62.8779H204.985Z" fill="#F6F4F2"/>
<path d="M209.983 62.8779V57.9177L206.563 62.8779H205.849V56.2266H206.734V61.1954L210.154 56.2266H210.867V62.8779H209.983Z" fill="#F6F4F2"/>
<path d="M211.712 62.0812C211.926 62.1131 212.118 62.1015 212.283 62.0435C212.448 61.9854 212.585 61.8781 212.698 61.7157C212.808 61.5532 212.892 61.3328 212.944 61.0514C213 60.77 213.026 60.4191 213.026 60.0014V56.2305H217.414V62.8817H216.53V57.0659H213.907V60.0014C213.907 60.6105 213.849 61.1065 213.736 61.4981C213.623 61.8868 213.467 62.1885 213.272 62.4002C213.075 62.612 212.846 62.7541 212.579 62.8237C212.312 62.8933 212.025 62.9136 211.715 62.8817V62.084L211.712 62.0812Z" fill="#F6F4F2"/>
<path d="M218.485 59.5505C218.485 58.5875 218.819 57.7753 219.483 57.1081C220.147 56.4381 220.962 56.1016 221.925 56.1016C222.888 56.1016 223.7 56.4381 224.368 57.1081C225.038 57.7724 225.374 58.5875 225.374 59.5505C225.374 60.5135 225.038 61.3199 224.368 61.9929C223.703 62.6629 222.888 62.9994 221.925 62.9994C220.962 62.9994 220.147 62.6629 219.483 61.9929C218.819 61.3228 218.485 60.5077 218.485 59.5505ZM224.489 59.5563C224.489 58.8195 224.243 58.2046 223.75 57.7086C223.268 57.2067 222.662 56.9573 221.928 56.9573C221.194 56.9573 220.591 57.2067 220.098 57.7086C219.61 58.2104 219.367 58.8253 219.367 59.5563C219.367 60.2873 219.61 60.8964 220.098 61.404C220.591 61.9001 221.2 62.1466 221.928 62.1466C222.656 62.1466 223.262 61.9001 223.75 61.404C224.243 60.9022 224.489 60.2873 224.489 59.5563Z" fill="#F6F4F2"/>
<path d="M230.571 62.8772V57.917L227.151 62.8772H226.438V56.2259H227.322V61.1948L230.742 56.2259H231.456V62.8772H230.571ZM227.665 55.5153V54.793H230.229V55.5153H227.665Z" fill="#F6F4F2"/>
<path d="M240.089 62.8779H239.007L236.138 59.6842V62.8779H235.253V56.2266H236.138V59.2288L238.911 56.2266H239.993L237.057 59.4579L240.089 62.8779Z" fill="#F6F4F2"/>
<path d="M239.958 59.5505C239.958 58.5875 240.292 57.7753 240.956 57.1081C241.621 56.4381 242.436 56.1016 243.399 56.1016C244.362 56.1016 245.174 56.4381 245.841 57.1081C246.511 57.7724 246.848 58.5875 246.848 59.5505C246.848 60.5135 246.511 61.3199 245.841 61.9929C245.177 62.6629 244.362 62.9994 243.399 62.9994C242.436 62.9994 241.621 62.6629 240.956 61.9929C240.292 61.3228 239.958 60.5077 239.958 59.5505ZM245.963 59.5563C245.963 58.8195 245.716 58.2046 245.223 57.7086C244.742 57.2067 244.135 56.9573 243.402 56.9573C242.668 56.9573 242.064 57.2067 241.571 57.7086C241.084 58.2104 240.84 58.8253 240.84 59.5563C240.84 60.2873 241.084 60.8964 241.571 61.404C242.064 61.9001 242.673 62.1466 243.402 62.1466C244.13 62.1466 244.736 61.9001 245.223 61.404C245.716 60.9022 245.963 60.2873 245.963 59.5563Z" fill="#F6F4F2"/>
<path d="M254.143 56.2256V62.8769H253.259V57.6788L251.083 61.2989H250.97L248.794 57.6875V62.874H247.91V56.2227H248.908L251.031 59.7383L253.143 56.2227H254.14L254.143 56.2256Z" fill="#F6F4F2"/>
<path d="M260.385 56.2266V62.8779H259.501V57.062H256.44V62.8779H255.556V56.2266H260.382H260.385Z" fill="#F6F4F2"/>
<path d="M261.229 62.0812C261.444 62.1131 261.635 62.1015 261.798 62.0435C261.96 61.9854 262.099 61.8781 262.21 61.7157C262.32 61.5532 262.404 61.3328 262.456 61.0514C262.508 60.77 262.537 60.4191 262.537 60.0014V56.2305H266.926V62.8817H266.041V57.0659H263.419V60.0014C263.419 60.6105 263.361 61.1065 263.248 61.4981C263.135 61.8868 262.978 62.1885 262.781 62.4002C262.584 62.612 262.355 62.7541 262.088 62.8237C261.821 62.8933 261.534 62.9136 261.223 62.8817V62.084L261.229 62.0812Z" fill="#F6F4F2"/>
<path d="M269.238 62.0425H272.327V62.8779H268.356V56.2266H272.281V57.062H269.241V59.1041H272.043V59.9307H269.241V62.0396L269.238 62.0425Z" fill="#F6F4F2"/>
<path d="M278.227 62.8779H277.145L274.276 59.6842V62.8779H273.391V56.2266H274.276V59.2288L277.049 56.2266H278.131L275.196 59.4579L278.227 62.8779Z" fill="#F6F4F2"/>
<path d="M281.58 62.9994C280.568 62.9994 279.732 62.6659 279.083 62.0016C278.424 61.3431 278.094 60.5251 278.094 59.5505C278.094 58.5759 278.421 57.7579 279.083 57.0994C279.735 56.4352 280.568 56.1016 281.58 56.1016C281.885 56.1016 282.178 56.1393 282.459 56.2147C282.74 56.2901 283.004 56.3974 283.254 56.5367C283.5 56.6759 283.727 56.8441 283.93 57.0443C284.133 57.2444 284.307 57.4678 284.452 57.7144L283.683 58.1611C283.492 57.7927 283.21 57.4997 282.833 57.2822C282.456 57.0646 282.041 56.9544 281.583 56.9544C280.811 56.9544 280.182 57.2009 279.7 57.6969C279.219 58.1872 278.978 58.805 278.978 59.5534C278.978 60.3018 279.219 60.9109 279.7 61.4011C280.182 61.8971 280.809 62.1437 281.583 62.1437C282.038 62.1437 282.456 62.0335 282.833 61.8159C283.21 61.5984 283.495 61.3083 283.683 60.9457L284.452 61.3837C284.173 61.8769 283.776 62.2713 283.265 62.5672C282.758 62.8544 282.198 62.9994 281.583 62.9994H281.58Z" fill="#F6F4F2"/>
<path d="M106.228 56.2266V57.062H104.261V62.8779H103.376V57.062H101.418V56.2266H106.225H106.228Z" fill="#F6F4F2"/>
<path d="M112.044 56.2266L109.688 60.1889V60.418H110.979V61.2157H109.688V62.8779H108.804V61.2157H107.513V60.418H108.804V60.1802L106.457 56.2266H107.446L109.25 59.3419L111.055 56.2266H112.044Z" fill="#F6F4F2"/>
<path d="M115.248 56.2266C115.858 56.2266 116.368 56.4325 116.783 56.8444C117.195 57.2563 117.401 57.7639 117.401 58.3644C117.401 58.9648 117.195 59.4724 116.783 59.8843C116.371 60.2962 115.858 60.5022 115.248 60.5022H113.714V62.8779H112.829V56.2266H115.248ZM115.243 59.6755C115.611 59.6755 115.913 59.5507 116.153 59.3042C116.394 59.046 116.516 58.7299 116.516 58.3644C116.516 58.1758 116.484 57.9989 116.42 57.8365C116.357 57.674 116.27 57.5377 116.153 57.4245C116.04 57.3114 115.904 57.2215 115.75 57.1548C115.594 57.0881 115.425 57.0562 115.243 57.0562H113.714V59.6784H115.243V59.6755Z" fill="#F6F4F2"/>
<path d="M117.903 59.1708H118.596V56.2266H122.33V57.062H119.478V59.1708H121.37V59.9685H119.478V62.875H118.594V59.9685H117.9V59.1708H117.903Z" fill="#F6F4F2"/>
<path d="M123.205 62.8779V56.2266H124.09V58.6022H125.624C126.234 58.6022 126.744 58.8082 127.159 59.2201C127.571 59.632 127.777 60.1396 127.777 60.74C127.777 61.3405 127.571 61.8568 127.159 62.2687C126.753 62.6748 126.242 62.8779 125.624 62.8779H123.205ZM124.09 62.0511H125.619C125.801 62.0511 125.973 62.0192 126.126 61.9525C126.28 61.8858 126.416 61.7959 126.529 61.6827C126.643 61.5696 126.733 61.4304 126.796 61.2709C126.86 61.1084 126.892 60.9344 126.892 60.7429C126.892 60.5515 126.86 60.3775 126.796 60.215C126.733 60.0526 126.645 59.9162 126.529 59.8031C126.416 59.69 126.28 59.6001 126.126 59.5334C125.97 59.4666 125.801 59.4347 125.619 59.4347H124.09V62.0569V62.0511ZM128.441 62.8779V56.2266H129.326V62.8779H128.441Z" fill="#F6F4F2"/>
<path d="M134.864 56.2266H135.749V62.8779H134.864V59.8843H131.632V62.8779H130.748V56.2266H131.632V59.0489H134.864V56.2266Z" fill="#F6F4F2"/>
<path d="M144.487 56.2266L142.132 60.1889V62.8779H141.247V60.1802L138.901 56.2266H139.89L141.694 59.3419L143.498 56.2266H144.487Z" fill="#F6F4F2"/>
<path d="M149.407 62.8772V57.917L145.987 62.8772H145.274V56.2259H146.158V61.1948L149.578 56.2259H150.292V62.8772H149.407ZM146.501 55.5153V54.793H149.065V55.5153H146.501Z" fill="#F6F4F2"/>
<path d="M158.928 62.8779H157.846L154.977 59.6842V62.8779H154.092V56.2266H154.977V59.2288L157.75 56.2266H158.832L155.896 59.4579L158.928 62.8779Z" fill="#F6F4F2"/>
<path d="M160.601 62.0425H163.69V62.8779H159.719V56.2266H163.644V57.062H160.604V59.1041H163.406V59.9307H160.604V62.0396L160.601 62.0425Z" fill="#F6F4F2"/>
<path d="M171.45 56.2266H172.334V62.8779H164.752V56.2266H165.637V62.0425H168.108V56.2266H168.993V62.0425H171.452V56.2266H171.45Z" fill="#F6F4F2"/>
<path d="M174.643 62.0425H177.732V62.8779H173.761V56.2266H177.686V57.062H174.646V59.1041H177.448V59.9307H174.646V62.0396L174.643 62.0425Z" fill="#F6F4F2"/>
<path d="M182.907 56.2266H183.792V62.8779H182.907V59.8843H179.676V62.8779H178.791V56.2266H179.676V59.0489H182.907V56.2266Z" fill="#F6F4F2"/>
<path d="M185.208 56.2266H186.092V62.8779H185.208V56.2266Z" fill="#F6F4F2"/>
<path d="M192.027 54.9336H191.142V64.1694H192.027V54.9336Z" fill="#F6F4F2"/>
<path fill-rule="evenodd" clip-rule="evenodd" d="M0.396179 72.7538L21.2057 72.751C22.4308 72.7508 23.6517 72.6065 24.8431 72.3209C27.0373 71.7946 28.6836 71.0828 30.3984 69.9183C31.265 69.3297 32.0632 68.6463 32.7783 67.8807L33.6417 66.9561C34.412 66.1312 35.0674 65.206 35.59 64.2056C36.0229 63.3763 36.5945 62.0016 36.8599 61.1507C37.1803 60.1233 37.372 59.0601 37.4307 57.9855L37.4807 57.0698C37.5498 55.8053 37.4579 54.5371 37.2071 53.2958C36.9564 52.054 36.5564 50.847 36.016 49.7012L35.9174 49.492C35.4152 48.427 34.8036 47.417 34.0924 46.4785C33.3821 45.541 32.5568 44.6965 31.6359 43.9647L31.2611 43.6669C30.278 42.8857 29.2088 42.2194 28.0743 41.681C26.9401 41.1428 25.7457 40.7421 24.5165 40.4874L23.7939 40.3377C22.7139 40.114 21.6077 40.0444 20.5082 40.1311C19.413 40.2174 18.3442 40.5105 17.3583 40.9949L17.0882 41.1276C16.1812 41.5733 15.3626 42.1798 14.6722 42.9178C13.9804 43.6574 13.4034 44.5142 12.9741 45.4313L12.9226 45.5414C12.5241 46.3933 12.2757 47.3075 12.1882 48.2439C12.1008 49.1802 12.1754 50.1245 12.4088 51.0354L12.4882 51.3452C12.6758 52.0778 12.965 52.7806 13.3474 53.433C13.6644 53.9741 14.3504 54.8557 14.8719 55.3923L14.9606 55.4836C15.5297 56.069 16.1918 56.5562 16.9201 56.9252C17.6496 57.2949 18.4284 57.5579 19.2328 57.706L19.4851 57.7525C20.336 57.9093 20.9565 58.6471 20.9653 59.5122L20.9833 61.2995C21.0017 63.1018 21.0264 64.7008 21.0386 64.8527C21.0503 64.9983 20.93 65.1204 20.7841 65.111L19.9556 65.0571C16.0983 64.8069 12.3812 63.0981 9.63465 60.3129C8.79592 59.4622 8.05382 58.5215 7.4219 57.5077L7.26725 57.2595C6.63493 56.2449 6.12755 55.1575 5.75614 54.0211C5.38512 52.886 5.17204 51.7052 5.12286 50.5119L5.04953 48.7325C5.00482 47.6476 5.10826 46.5617 5.357 45.5047C5.60595 44.4462 5.97274 43.4188 6.4505 42.442L6.73146 41.8675C7.39325 40.5146 8.2538 39.2638 9.2817 38.163L9.41684 38.0183C10.2126 37.1662 10.2093 35.8424 9.40923 34.9943L9.03734 34.6001C8.33862 33.8594 7.71982 33.0471 7.19116 32.1769C6.66246 31.3067 6.22565 30.3839 5.88776 29.4234L5.7747 29.1019C5.3635 27.9332 5.15344 26.7031 5.15344 25.4641V22.5085C5.15344 21.3153 5.35611 20.1308 5.75282 19.0055C6.15125 17.8749 6.66228 16.7871 7.27819 15.7587L7.29437 15.7317C7.92054 14.6863 8.66917 13.7194 9.52438 12.8514L9.81241 12.5591C10.6303 11.7292 11.5514 11.0077 12.5531 10.4126C15.0302 8.9411 17.8742 8.02302 20.0109 8.00534C20.5284 8.00108 20.9502 8.41942 20.9502 8.93694V14.211C20.9502 14.6939 20.5985 15.1048 20.1214 15.1794C16.0919 15.8088 13.2568 18.4132 12.3328 22.3339L12.3221 22.3793C12.1441 23.1345 12.0939 23.9142 12.1736 24.6859C12.2534 25.4593 12.4417 26.2176 12.7329 26.9384L12.9353 27.4396C13.2336 28.178 13.6306 28.8725 14.1154 29.5042C14.5175 30.028 15.2709 30.7823 15.79 31.1806C16.415 31.6604 17.1127 32.0373 17.8567 32.2968L18.3447 32.4671C19.4081 32.8379 20.5345 32.9936 21.6586 32.9253L22.5394 32.8717C23.6126 32.8064 24.6742 32.6138 25.7019 32.298C26.5528 32.0365 28.0446 31.4135 29.0171 30.9136C30.1886 30.3111 31.2582 29.5286 32.187 28.5944L33.5074 27.2664C34.1947 26.5752 34.7922 25.8003 35.2861 24.96C35.6952 24.2638 36.3286 22.8279 36.6935 21.769C37.1337 20.4919 37.3921 19.1592 37.4609 17.81L37.5061 16.9244C37.5589 15.8923 37.4961 14.8575 37.3192 13.8394C37.1422 12.8208 36.8595 11.8234 36.4756 10.8635L36.3966 10.6661C35.9602 9.57486 35.4123 8.5316 34.7616 7.55292L34.7461 7.52973C34.0857 6.53634 33.3098 5.62485 32.4345 4.8144L32.2153 4.6115C31.1959 3.66785 30.0476 2.87378 28.8049 2.25308L28.6323 2.1669C27.5067 1.60487 25.9892 0.976753 25.2599 0.771213C24.3798 0.52318 23.4705 0.394273 22.5562 0.387937L0.396179 0.234375V72.7538ZM58.6326 0.483678C56.7423 0.767898 55.6083 1.15246 53.5493 2.20734C52.2315 2.88266 51.0282 3.76137 49.9839 4.81115L48.9748 5.82533C48.1969 6.60724 47.5226 7.48587 46.9685 8.43963C46.4137 9.3949 45.957 10.4038 45.6052 11.451L45.5403 11.6443C45.147 12.8152 44.9465 14.0423 44.9465 15.2775V17.9565C44.9465 19.1918 45.147 20.4188 45.5403 21.5898L45.6122 21.8038C45.9592 22.837 46.4138 23.8308 46.9685 24.769C47.5233 25.7071 48.176 26.5838 48.9157 27.3842L49.3876 27.8948C50.1873 28.7604 51.0881 29.5268 52.0705 30.1776C53.8722 31.3713 55.9119 32.2469 57.8451 32.6567C58.8095 32.8611 59.7925 32.9653 60.7783 32.9678L61.1039 32.9686C62.0378 32.9707 62.9657 32.8198 63.8506 32.5217C64.5857 32.2739 65.5522 31.8405 65.9986 31.558C67.1254 30.8453 68.5575 29.2374 69.2066 27.9564C69.5688 27.2417 69.831 26.4805 69.9858 25.6943L70.0197 25.5218C70.1962 24.6243 70.2062 23.7021 70.0493 22.801L69.9823 22.4161C69.8415 21.6079 69.5815 20.8251 69.2106 20.0933C68.8397 19.3611 68.3668 18.6851 67.806 18.0857L67.6726 17.9431C67.0245 17.2502 66.2637 16.6683 65.4258 16.2234L65.3355 16.1755C64.555 15.7613 63.7155 15.4694 62.8464 15.3102C62.1252 15.178 61.5035 15.07 61.465 15.07C61.4266 15.07 61.3952 13.4643 61.3952 11.502V9.53718C61.3952 8.67693 62.1348 8.00289 62.9913 8.08248C64.0516 8.18099 65.0963 8.40614 66.103 8.75313L66.4194 8.8622C67.427 9.20963 68.8223 9.82847 69.5198 10.2376C70.362 10.7314 71.1381 11.3301 71.8295 12.0193L73.1252 13.3109C74.0742 14.2569 74.871 15.3441 75.4873 16.5339L75.5418 16.6391C76.1233 17.7618 76.5663 18.951 76.8611 20.1806C77.156 21.4105 77.3054 22.6707 77.3064 23.9354L77.3067 24.2938C77.3076 25.3765 77.1906 26.4561 76.9579 27.5135C76.7252 28.5704 76.3705 29.5966 75.9011 30.5717L75.65 31.0933C75.0151 32.4119 74.1872 33.6286 73.1935 34.7032L72.9238 34.9949C72.1328 35.8505 72.1325 37.1705 72.9234 38.0264L73.2117 38.3384C73.9514 39.1389 74.6041 40.0155 75.1589 40.9537C75.7134 41.8916 76.1635 42.8875 76.5011 43.9235L76.5694 44.1329C76.9516 45.3062 77.1728 46.5259 77.227 47.7587L77.2858 49.098C77.3363 50.2481 77.2353 51.3998 76.9853 52.5236C76.7352 53.648 76.348 54.7374 75.8323 55.7673L75.6036 56.2242C74.9372 57.5553 74.0756 58.7793 73.0473 59.8557L72.5443 60.3822C71.6981 61.2679 70.7435 62.0432 69.703 62.6896L69.6203 62.741C68.6342 63.3537 67.5797 63.8488 66.4785 64.2162C65.5668 64.5205 64.2739 64.8315 63.6053 64.9073C62.9368 64.9831 62.1659 65.0907 61.8925 65.1464C61.6356 65.1988 61.3952 65.0025 61.3952 64.7403V59.049C61.3952 58.4439 61.838 57.9299 62.4364 57.8402C63.9207 57.6174 65.544 56.9531 66.722 56.0858C67.3949 55.5904 67.9765 54.9816 68.4406 54.2868L68.6417 53.9856C69.2381 53.0923 69.6638 52.0962 69.897 51.0478L69.9589 50.7696C70.1805 49.7736 70.2023 48.7436 70.0228 47.7391L70.0049 47.6389C69.8363 46.696 69.5333 45.7822 69.1052 44.9254C68.6782 44.0709 68.1024 43.2993 67.4048 42.6468L67.3899 42.6329C66.1063 41.4321 64.9573 40.818 63.1078 40.3441C62.1936 40.1097 61.2465 40.0301 60.3059 40.1084L60.053 40.1295C55.679 40.4939 51.8617 42.3588 49.0002 45.5292C48.3419 46.2588 47.4684 47.4105 47.0593 48.0888C46.5647 48.9086 46.1565 49.7775 45.8411 50.6815L45.64 51.2581C45.1922 52.5418 44.938 53.885 44.8858 55.2435L44.8417 56.3891C44.7926 57.6621 44.9244 58.9357 45.2333 60.1717C45.5429 61.4102 45.9841 62.612 46.5496 63.7566L46.6447 63.9492C47.1768 65.0262 47.8399 66.0334 48.619 66.9479C50.6408 69.3211 53.3175 71.096 56.4225 72.1231C57.4475 72.462 58.5194 72.6379 59.599 72.6442L81.9492 72.775V0.262224L60.8551 0.314696C60.1111 0.316547 59.3683 0.373026 58.6326 0.483678ZM40.1032 30.613C39.4261 31.5618 38.6529 32.4383 37.7959 33.2285L37.366 33.6249C36.4207 34.4964 35.2249 35.477 34.7086 35.8037C34.1921 36.1303 33.7697 36.4472 33.7697 36.508C33.7697 36.5688 34.2162 36.9005 34.7618 37.2453C35.3073 37.5901 36.5067 38.5751 37.4268 39.4344L37.8403 39.8206C38.6778 40.6026 39.4349 41.4664 40.1004 42.3991C40.6507 43.1704 41.1283 43.8014 41.1617 43.8014C41.195 43.8014 41.7277 43.122 42.3452 42.2914C43.5528 40.6677 45.6835 38.5731 47.3327 37.3887C47.8952 36.9847 48.3556 36.5847 48.3556 36.4998C48.3556 36.4152 47.9538 36.0799 47.4629 35.755C46.1737 34.9019 43.465 32.2735 42.3642 30.8075C41.8432 30.1137 41.3506 29.4651 41.2693 29.366C41.1949 29.2752 41.0545 29.2798 40.9863 29.3754L40.1032 30.613Z" fill="#F6F4F2"/>
</svg>
