<svg width="24" height="24" viewBox="0 0 24 24" fill="none" xmlns="http://www.w3.org/2000/svg">
<circle opacity="0.2" cx="12.301" cy="11.9502" r="11.5273" fill="#59160C"/>
<path d="M12.3004 11.5942C11.8283 11.5942 11.3756 11.4067 11.0418 11.0729C10.708 10.7391 10.5205 10.2864 10.5205 9.81431C10.5205 9.34225 10.708 8.88952 11.0418 8.55572C11.3756 8.22192 11.8283 8.0344 12.3004 8.0344C12.7725 8.0344 13.2252 8.22192 13.559 8.55572C13.8928 8.88952 14.0803 9.34225 14.0803 9.81431C14.0803 10.048 14.0343 10.2795 13.9448 10.4954C13.8554 10.7114 13.7243 10.9076 13.559 11.0729C13.3937 11.2382 13.1975 11.3693 12.9815 11.4587C12.7656 11.5482 12.5341 11.5942 12.3004 11.5942ZM12.3004 4.83057C10.9786 4.83057 9.71099 5.35564 8.77635 6.29027C7.84172 7.2249 7.31665 8.49254 7.31665 9.81431C7.31665 13.5521 12.3004 19.0698 12.3004 19.0698C12.3004 19.0698 17.2841 13.5521 17.2841 9.81431C17.2841 8.49254 16.7591 7.2249 15.8244 6.29027C14.8898 5.35564 13.6222 4.83057 12.3004 4.83057Z" fill="#59160C"/>
</svg>
