<svg width="13" height="18" viewBox="0 0 13 18" fill="none" xmlns="http://www.w3.org/2000/svg">
<path fill-rule="evenodd" clip-rule="evenodd" d="M8.77166 17.2257C8.90452 17.4405 9.11697 17.5939 9.36259 17.6525C9.60821 17.7111 9.86705 17.6701 10.0825 17.5385C10.298 17.4068 10.4527 17.1953 10.5127 16.95C10.5727 16.7047 10.5332 16.4456 10.4028 16.2294L8.21376 12.6779L7.75434 10.819C7.73233 10.8447 7.71074 10.8706 7.68932 10.8968L6.20469 12.4936L6.38657 13.2287C6.4075 13.3453 6.44999 13.457 6.51186 13.558L8.77166 17.2257ZM1.46974 16.3777L2.89228 12.6098C2.94223 12.4767 3.02108 12.3563 3.12315 12.2573L5.34605 9.79642V5.75898C5.34664 5.45277 5.46854 5.15928 5.68507 4.94276C5.90159 4.72624 6.19508 4.60433 6.50129 4.60374C6.81261 4.60374 6.94461 4.68985 7.19761 4.81654L12.002 7.5904C12.0988 7.64642 12.1835 7.72096 12.2515 7.80974C12.3194 7.89852 12.3692 7.99981 12.398 8.10783C12.4267 8.21585 12.434 8.32849 12.4192 8.4393C12.4045 8.55011 12.3681 8.65693 12.312 8.75367C12.256 8.8504 12.1815 8.93516 12.0927 9.00309C12.0039 9.07102 11.9026 9.1208 11.7946 9.14958C11.6866 9.17836 11.5739 9.18559 11.4631 9.17085C11.3523 9.1561 11.2455 9.11968 11.1488 9.06365L7.65646 7.04736V9.75637C7.65646 10.2546 7.59257 10.2357 7.31743 10.5725L4.63603 13.4565L3.2765 17.0579C3.18629 17.2975 3.0046 17.4914 2.77141 17.597C2.53822 17.7026 2.27263 17.7113 2.03307 17.621C1.7935 17.5308 1.59959 17.3491 1.49399 17.116C1.38838 16.8828 1.37953 16.6173 1.46974 16.3777ZM6.05398 0.777344C5.77508 0.777344 5.50245 0.860047 5.27055 1.01499C5.03866 1.16994 4.85792 1.39018 4.75119 1.64784C4.64446 1.90551 4.61653 2.18905 4.67094 2.46259C4.72535 2.73613 4.85966 2.98739 5.05687 3.1846C5.25408 3.38181 5.50534 3.51611 5.77888 3.57052C6.05242 3.62493 6.33595 3.59701 6.59362 3.49028C6.85129 3.38355 7.07152 3.20281 7.22647 2.97091C7.38142 2.73902 7.46412 2.46638 7.46412 2.18748C7.46412 1.81349 7.31555 1.45482 7.0511 1.19036C6.78665 0.925911 6.42798 0.777344 6.05398 0.777344ZM4.85295 8.26745V5.79691L3.73476 6.94452L1.3974 7.60353C1.1807 7.66365 0.99659 7.80707 0.885278 8.00248C0.773967 8.19788 0.744498 8.4294 0.803307 8.64646C0.862116 8.86352 1.00442 9.04849 1.19916 9.16098C1.39389 9.27347 1.62522 9.30433 1.84263 9.24683L4.49254 8.52945C4.58244 8.50623 4.66422 8.45871 4.72891 8.39209L4.85295 8.26745Z" fill="#59160C"/>
</svg>
