<svg width="18" height="13" viewBox="0 0 18 13" fill="none" xmlns="http://www.w3.org/2000/svg">
<path d="M17.0359 3.75026H15.0594L14.51 2.3769C13.9455 0.964902 12.5982 0.0527344 11.0773 0.0527344H6.88455C5.36394 0.0527344 4.01632 0.964902 3.45146 2.3769L2.90211 3.75026H0.925915C0.668078 3.75026 0.47891 3.99258 0.541636 4.2425L0.739718 5.03483C0.783626 5.21112 0.942092 5.33492 1.124 5.33492H1.78658C1.34321 5.72217 1.05764 6.28505 1.05764 6.91958V8.50423C1.05764 9.03641 1.261 9.51676 1.58586 9.88849V11.6735C1.58586 12.2569 2.05894 12.73 2.6423 12.73H3.69873C4.28208 12.73 4.75517 12.2569 4.75517 11.6735V10.6171H13.2067V11.6735C13.2067 12.2569 13.6798 12.73 14.2631 12.73H15.3195C15.9029 12.73 16.376 12.2569 16.376 11.6735V9.88849C16.7008 9.51709 16.9042 9.03674 16.9042 8.50423V6.91958C16.9042 6.28505 16.6186 5.72217 16.1756 5.33492H16.8382C17.0201 5.33492 17.1785 5.21112 17.2225 5.03483L17.4205 4.2425C17.4829 3.99258 17.2938 3.75026 17.0359 3.75026ZM5.41313 3.16163C5.6538 2.56012 6.23649 2.16561 6.88455 2.16561H11.0773C11.7253 2.16561 12.308 2.56012 12.5487 3.16163L13.2067 4.8067H4.75517L5.41313 3.16163ZM3.69873 8.49763C3.06487 8.49763 2.6423 8.07637 2.6423 7.44449C2.6423 6.81261 3.06487 6.39136 3.69873 6.39136C4.3326 6.39136 5.28339 7.33918 5.28339 7.97106C5.28339 8.60294 4.3326 8.49763 3.69873 8.49763ZM14.2631 8.49763C13.6292 8.49763 12.6784 8.60294 12.6784 7.97106C12.6784 7.33918 13.6292 6.39136 14.2631 6.39136C14.897 6.39136 15.3195 6.81261 15.3195 7.44449C15.3195 8.07637 14.897 8.49763 14.2631 8.49763Z" fill="#59160C"/>
</svg>
