<svg width="13" height="17" viewBox="0 0 13 17" fill="none" xmlns="http://www.w3.org/2000/svg">
<path fill-rule="evenodd" clip-rule="evenodd" d="M8.76189 16.4552C8.89475 16.67 9.1072 16.8234 9.35283 16.882C9.59845 16.9406 9.85728 16.8996 10.0728 16.768C10.2883 16.6363 10.4429 16.4248 10.5029 16.1795C10.5629 15.9342 10.5234 15.6751 10.393 15.4589L8.204 11.9074L7.74458 10.0485C7.72256 10.0742 7.70097 10.1001 7.67956 10.1263L6.19493 11.7231L6.37681 12.4581C6.39774 12.5748 6.44022 12.6865 6.50209 12.7875L8.76189 16.4552ZM1.45998 15.6072L2.88251 11.8393C2.93246 11.7062 3.01131 11.5858 3.11339 11.4868L5.33628 9.02591V4.98847C5.33688 4.68227 5.45878 4.38877 5.6753 4.17225C5.89182 3.95573 6.18532 3.83383 6.49152 3.83323C6.80284 3.83323 6.93485 3.91934 7.18784 4.04603L11.9923 6.81989C12.089 6.87592 12.1738 6.95045 12.2417 7.03923C12.3096 7.12801 12.3594 7.22931 12.3882 7.33733C12.417 7.44535 12.4242 7.55798 12.4095 7.66879C12.3947 7.7796 12.3583 7.88643 12.3023 7.98316C12.2462 8.0799 12.1717 8.16465 12.0829 8.23258C11.9941 8.30051 11.8928 8.35029 11.7848 8.37907C11.6768 8.40786 11.5642 8.41508 11.4534 8.40034C11.3425 8.38559 11.2357 8.34917 11.139 8.29314L7.6467 6.27685V8.98586C7.6467 9.48406 7.58281 9.46515 7.30766 9.802L4.62626 12.686L3.26674 16.2874C3.17652 16.527 2.99483 16.7209 2.76164 16.8265C2.52845 16.9321 2.26286 16.9408 2.0233 16.8505C1.78374 16.7603 1.58983 16.5786 1.48422 16.3454C1.37862 16.1123 1.36997 15.8467 1.46019 15.6071L1.45998 15.6072ZM6.04422 0.00683594C5.76532 0.00683594 5.49268 0.0895391 5.26079 0.244487C5.02889 0.399435 4.84815 0.619668 4.74142 0.877337C4.63469 1.13501 4.60677 1.41854 4.66118 1.69208C4.71559 1.96562 4.84989 2.21688 5.0471 2.41409C5.24431 2.6113 5.49557 2.7456 5.76911 2.80002C6.04265 2.85443 6.32619 2.8265 6.58385 2.71977C6.84152 2.61304 7.06176 2.4323 7.21671 2.2004C7.37165 1.96851 7.45436 1.69587 7.45436 1.41697C7.45436 1.04298 7.30579 0.684308 7.04134 0.419856C6.77688 0.155404 6.41821 0.00683594 6.04422 0.00683594ZM4.84319 7.49694V5.02641L3.725 6.17401L1.38763 6.83302C1.17093 6.89314 0.986824 7.03656 0.875513 7.23197C0.764201 7.42738 0.734732 7.65889 0.793541 7.87595C0.852351 8.09301 0.994659 8.27798 1.18939 8.39047C1.38412 8.50296 1.61545 8.53382 1.83286 8.47632L4.48277 7.75895C4.57268 7.73572 4.65445 7.6882 4.71914 7.62158L4.84319 7.49694Z" fill="#979797"/>
</svg>
