<svg width="18" height="18" viewBox="0 0 18 18" fill="none" xmlns="http://www.w3.org/2000/svg">
<path d="M17.3844 0.533346C17.4345 0.583307 17.4742 0.642658 17.5013 0.708C17.5285 0.773343 17.5424 0.843392 17.5424 0.914137C17.5424 0.984881 17.5285 1.05493 17.5013 1.12027C17.4742 1.18562 17.4345 1.24497 17.3844 1.29493L12.9236 5.75469H15.9279C16.0706 5.75469 16.2074 5.81136 16.3082 5.91222C16.4091 6.01309 16.4658 6.14989 16.4658 6.29253C16.4658 6.43517 16.4091 6.57198 16.3082 6.67284C16.2074 6.77371 16.0706 6.83037 15.9279 6.83037H11.6252C11.4826 6.83037 11.3458 6.77371 11.2449 6.67284C11.144 6.57198 11.0874 6.43517 11.0874 6.29253V1.98982C11.0874 1.84717 11.144 1.71037 11.2449 1.60951C11.3458 1.50864 11.4826 1.45198 11.6252 1.45198C11.7679 1.45198 11.9047 1.50864 12.0055 1.60951C12.1064 1.71037 12.1631 1.84717 12.1631 1.98982V4.99419L16.6228 0.533346C16.6728 0.483259 16.7321 0.443521 16.7975 0.416406C16.8628 0.389292 16.9329 0.375336 17.0036 0.375336C17.0744 0.375336 17.1444 0.389292 17.2097 0.416406C17.2751 0.443521 17.3344 0.483259 17.3844 0.533346ZM4.26112 1.8048C4.19761 1.72311 4.11746 1.65587 4.02597 1.60755C3.93449 1.55922 3.83377 1.53091 3.7305 1.5245C3.62724 1.51809 3.52379 1.53373 3.42703 1.57037C3.33027 1.60701 3.24242 1.66382 3.1693 1.73703L2.05705 2.85036C1.5375 3.37099 1.34603 4.10783 1.57299 4.75431C2.51607 7.42964 4.0483 9.85885 6.05642 11.8624C8.05997 13.8705 10.4892 15.4027 13.1645 16.3458C13.811 16.5728 14.5478 16.3813 15.0685 15.8618L16.1807 14.7495C16.2539 14.6764 16.3107 14.5885 16.3474 14.4918C16.384 14.395 16.3997 14.2916 16.3932 14.1883C16.3868 14.0851 16.3585 13.9843 16.3102 13.8928C16.2619 13.8014 16.1946 13.7212 16.1129 13.6577L13.6314 11.7279C13.544 11.6604 13.4425 11.6135 13.3345 11.5908C13.2264 11.568 13.1146 11.5701 13.0075 11.5967L10.6517 12.1851C10.3373 12.2632 10.008 12.2587 9.69571 12.1722C9.38345 12.0857 9.09881 11.9201 8.86932 11.6914L6.22746 9.04842C5.99853 8.81904 5.8327 8.53445 5.74601 8.22219C5.65933 7.90993 5.65472 7.58058 5.73264 7.26602L6.32212 4.91028C6.34875 4.80313 6.35078 4.69134 6.32805 4.58329C6.30532 4.47524 6.25843 4.37373 6.19088 4.28639L4.26112 1.8048ZM2.35716 0.925969C2.5454 0.737671 2.77155 0.591573 3.02058 0.497377C3.26961 0.403181 3.53583 0.363041 3.80157 0.379624C4.0673 0.396207 4.32647 0.469133 4.56186 0.593559C4.79724 0.717985 5.00347 0.891065 5.16684 1.1013L7.09661 3.58182C7.4505 4.03683 7.57528 4.62953 7.43544 5.18888L6.84705 7.54462C6.81684 7.66665 6.81859 7.7944 6.85213 7.91555C6.88566 8.0367 6.94986 8.14716 7.03852 8.23628L9.68146 10.8792C9.77069 10.9681 9.88133 11.0324 10.0027 11.0659C10.1241 11.0995 10.252 11.1011 10.3742 11.0707L12.7289 10.4823C13.0049 10.4137 13.2929 10.4085 13.5713 10.4672C13.8496 10.5259 14.1111 10.6469 14.3359 10.8211L16.8164 12.7509C17.7082 13.4447 17.7899 14.7624 16.9918 15.5595L15.8795 16.6718C15.0835 17.4678 13.8938 17.8174 12.7848 17.4269C9.94573 16.4293 7.36826 14.8041 5.24429 12.6724C3.11269 10.5487 1.48753 7.97163 0.489785 5.13295C0.100389 4.025 0.449985 2.83422 1.24599 2.03822L2.35716 0.925969Z" fill="white"/>
</svg>
