<svg width="34" height="35" viewBox="0 0 34 35" fill="none" xmlns="http://www.w3.org/2000/svg">
<circle cx="16.8373" cy="17.3652" r="16.6478" fill="#471224"/>
<path d="M22.9303 17.3652C22.9307 17.526 22.8895 17.6841 22.8107 17.8242C22.7319 17.9643 22.6181 18.0816 22.4805 18.1648L13.9531 23.3814C13.8093 23.4694 13.6446 23.5175 13.4761 23.5206C13.3075 23.5237 13.1412 23.4818 12.9943 23.3992C12.8487 23.3178 12.7275 23.1991 12.643 23.0554C12.5586 22.9116 12.5139 22.7479 12.5137 22.5812V12.1492C12.5139 11.9824 12.5586 11.8188 12.643 11.675C12.7275 11.5313 12.8487 11.4126 12.9943 11.3312C13.1412 11.2486 13.3075 11.2066 13.4761 11.2098C13.6446 11.2129 13.8093 11.2609 13.9531 11.349L22.4805 16.5656C22.6181 16.6487 22.7319 16.7661 22.8107 16.9062C22.8895 17.0463 22.9307 17.2044 22.9303 17.3652Z" fill="white"/>
</svg>
