<svg width="206" height="40" viewBox="0 0 206 40" fill="none" xmlns="http://www.w3.org/2000/svg">
<path d="M1.84291 22.4193V16.8239H1.96893C3.83886 20.7432 5.9451 22.7028 8.28767 22.7028C9.34865 22.7028 10.2676 22.3718 11.0451 21.7099C11.833 21.0376 12.2267 20.1812 12.2267 19.1409C12.2059 17.4493 10.9769 15.831 8.53971 14.2864C7.28957 13.4878 6.2706 12.8207 5.48278 12.2847C4.39035 11.5493 3.4974 10.6981 2.80416 9.73144C2.11092 8.76477 1.76946 7.71923 1.78002 6.59505C1.78002 5.8805 1.91661 5.20279 2.18953 4.56171C2.4627 3.92086 2.83044 3.36405 3.29252 2.89104C3.75484 2.4077 4.28521 1.99268 4.88412 1.64597C5.48278 1.29925 6.11829 1.03657 6.79065 0.85793C7.47357 0.67929 8.15108 0.589844 8.8232 0.589844C10.6091 0.589844 12.5419 1.03116 14.6219 1.91379V6.62649H14.4959C12.7836 3.33775 10.8349 1.69314 8.65001 1.69314C7.6836 1.69314 6.85378 2.00324 6.16029 2.62319C5.47762 3.24315 5.13616 4.02603 5.13616 4.97156C5.13616 6.54762 6.37057 8.0819 8.83916 9.57393C9.98416 10.2462 11.0189 10.8979 11.9433 11.5282C13.0357 12.2639 13.9286 13.1465 14.6219 14.1761C15.3151 15.1953 15.6566 16.2935 15.646 17.4702C15.646 19.2669 14.9371 20.7749 13.5189 21.9937C12.1113 23.2022 10.2362 23.8061 7.89364 23.8061C5.55107 23.8061 3.53424 23.3439 1.84291 22.4193Z" fill="white"/>
<path d="M23.0684 14.1458H30.3955L26.6925 3.36525L23.0684 14.1458ZM39.3455 23.1928V23.3188H30.4584V23.1928C31.1516 23.035 31.6348 22.7987 31.908 22.4834C32.1917 22.1578 32.3335 21.6482 32.3335 20.9548C32.3335 20.2191 31.8294 18.3592 30.8207 15.3751H22.6589C21.7765 18.0862 21.3353 19.8409 21.3353 20.6395C21.3353 21.4064 21.4979 21.9738 21.8236 22.3416C22.1494 22.7094 22.6955 22.993 23.4624 23.1928V23.3188H16.1669V23.1928C17.1333 22.7935 17.9212 22.1001 18.5304 21.1123C19.1396 20.1036 20.0326 17.9339 21.209 14.6029L26.015 1.04834H29.8912L35.5322 17.1878C36.2254 19.1526 36.8506 20.5658 37.4072 21.4275C37.943 22.2576 38.5891 22.8461 39.3455 23.1928Z" fill="white"/>
<path d="M70.0568 23.2242V23.3188H61.044V23.1928C61.9369 22.8144 62.5513 22.3994 62.8874 21.9477C63.2342 21.4853 63.4074 20.7919 63.4074 19.8672C63.4074 18.974 63.376 18.0808 63.3129 17.1878L62.4936 4.37394L54.426 23.3188H52.7873L45.3027 4.21618H45.2083L44.3574 16.8251C44.2942 17.7078 44.2628 18.6115 44.2628 19.5362C44.2628 20.5238 44.452 21.3015 44.83 21.8689C45.2083 22.4257 45.8596 22.867 46.784 23.1928V23.3188H39.7405V23.1928C40.8541 22.8355 41.5788 22.247 41.9151 21.4275C42.2303 20.6604 42.4771 19.1263 42.6555 16.8251L43.3961 6.92724C43.4801 5.63474 43.5222 4.69953 43.5222 4.12159C43.5222 3.36526 43.3227 2.77158 42.9235 2.34059C42.5349 1.90984 41.9517 1.52111 41.1744 1.17439V1.04834H48.2965L55.009 18.1808L62.273 1.04834H68.8909V1.17439C68.04 1.53167 67.4308 1.9413 67.063 2.40375C66.7058 2.86595 66.5273 3.53333 66.5273 4.40539C66.5273 5.20399 66.5589 6.03404 66.6218 6.89554L67.2993 16.8568C67.4779 19.2524 67.7039 20.797 67.9769 21.4904C68.2606 22.1841 68.9538 22.762 70.0568 23.2242Z" fill="white"/>
<path d="M77.6495 14.1458H84.9764L81.2737 3.36525L77.6495 14.1458ZM93.9264 23.1928V23.3188H85.0396V23.1928C85.7328 23.035 86.216 22.7987 86.4892 22.4834C86.7729 22.1578 86.9147 21.6482 86.9147 20.9548C86.9147 20.2191 86.4103 18.3592 85.4019 15.3751H77.2398C76.3574 18.0862 75.9162 19.8409 75.9162 20.6395C75.9162 21.4064 76.0791 21.9738 76.4048 22.3416C76.7303 22.7094 77.2766 22.993 78.0436 23.1928V23.3188H70.7481V23.1928C71.7145 22.7935 72.5023 22.1001 73.1116 21.1123C73.7208 20.1036 74.6137 17.9339 75.7902 14.6029L80.5962 1.04834H84.4724L90.1133 17.1878C90.8066 19.1526 91.4315 20.5658 91.9884 21.4275C92.5242 22.2576 93.17 22.8461 93.9264 23.1928Z" fill="white"/>
<path d="M110.976 23.3188H95.0457V23.1928C96.1172 22.8564 96.8262 22.3993 97.1731 21.8214C97.53 21.2332 97.6983 20.2665 97.6771 18.9214V5.4298C97.6771 4.12698 97.5091 3.17065 97.1731 2.56126C96.8262 1.973 96.1172 1.51054 95.0457 1.17439V1.04834H104.39V1.17439C103.339 1.49997 102.641 1.96243 102.294 2.56126C101.947 3.17065 101.779 4.12698 101.79 5.4298V22.1524H104.752C105.614 22.1524 106.196 22.1315 106.501 22.0895C106.984 22.0263 107.489 21.8214 108.014 21.4747C108.549 21.128 109.001 20.7444 109.369 20.3242C110.01 19.5991 110.708 18.7796 111.465 17.8655H111.622L110.976 23.3188Z" fill="white"/>
<path d="M129.898 23.1928V23.3188H120.034V23.1928C121.106 22.8564 121.815 22.3942 122.162 21.8057C122.508 21.1963 122.676 20.2245 122.666 18.89V5.4298C122.666 4.12698 122.498 3.17065 122.162 2.56126C121.815 1.973 121.106 1.51054 120.034 1.17439V1.04834H130.056C135.329 1.04834 137.966 3.02885 137.966 6.99013C137.966 7.93591 137.819 8.7871 137.525 9.54343C137.23 10.2894 136.831 10.9094 136.327 11.4033C135.823 11.8866 135.219 12.2913 134.515 12.6169C133.811 12.9322 133.065 13.158 132.277 13.2946C131.5 13.4312 130.665 13.4996 129.772 13.4996H126.778V18.89C126.778 20.1824 126.994 21.1386 127.424 21.7585C127.855 22.3785 128.68 22.8564 129.898 23.1928ZM126.778 2.15162V12.412H128.322C130.318 12.412 131.752 11.9078 132.624 10.8991C133.496 9.87982 133.932 8.65048 133.932 7.2108C133.932 5.75023 133.564 4.542 132.829 3.5859C132.094 2.62955 130.922 2.15162 129.315 2.15162H126.778Z" fill="white"/>
<path d="M143.551 14.1458H150.877L147.175 3.36525L143.551 14.1458ZM159.827 23.1928V23.3188H150.941V23.1928C151.634 23.035 152.117 22.7987 152.39 22.4834C152.674 22.1578 152.816 21.6482 152.816 20.9548C152.816 20.2191 152.311 18.3592 151.303 15.3751H143.141C142.258 18.0862 141.817 19.8409 141.817 20.6395C141.817 21.4064 141.98 21.9738 142.306 22.3416C142.631 22.7094 143.178 22.993 143.945 23.1928V23.3188H136.649V23.1928C137.615 22.7935 138.403 22.1001 139.013 21.1123C139.622 20.1036 140.515 17.9339 141.691 14.6029L146.497 1.04834H150.373L156.014 17.1878C156.708 19.1526 157.332 20.5658 157.889 21.4275C158.425 22.2576 159.071 22.8461 159.827 23.1928Z" fill="white"/>
<path d="M182.302 23.1928V23.3188H179.86C178.453 23.3188 177.465 23.2557 176.898 23.1296C176.32 23.0036 175.848 22.762 175.48 22.4048C175.091 22.0263 174.561 21.3172 173.888 20.2768L169.366 13.3103H167.696V18.89C167.696 20.2139 167.864 21.1857 168.2 21.8057C168.547 22.4048 169.246 22.867 170.296 23.1928V23.3188H160.952V23.1928C162.024 22.8564 162.733 22.3942 163.079 21.8057C163.426 21.1963 163.594 20.2245 163.583 18.89V5.4298C163.583 4.12698 163.415 3.17065 163.079 2.56126C162.733 1.973 162.024 1.51054 160.952 1.17439V1.04834H170.721C176.226 1.04834 178.978 2.98683 178.978 6.86408C178.978 8.36667 178.4 9.59086 177.245 10.5364C176.1 11.4822 174.734 12.1599 173.148 12.5697L178.364 19.804C179.341 21.1386 180.039 21.9843 180.459 22.3416C180.9 22.72 181.515 23.0036 182.302 23.1928ZM167.696 2.15162V12.3174H168.972C170.779 12.3174 172.203 11.8763 173.243 10.9937C174.293 10.1111 174.818 8.80799 174.818 7.08475C174.818 5.73991 174.424 4.58403 173.636 3.61736C172.859 2.64012 171.814 2.15162 170.501 2.15162H167.696Z" fill="white"/>
<path d="M205.947 23.1928V23.3188H196.145V23.1928C196.735 23.0562 197.165 22.8987 197.437 22.72C197.71 22.5517 197.838 22.2681 197.816 21.8689C197.816 21.2174 197.187 19.9249 195.924 17.9916L192.05 12.1756L189.213 15.1859V18.9214C189.213 20.2454 189.38 21.212 189.716 21.8214C190.063 22.4099 190.763 22.867 191.812 23.1928V23.3188H182.469V23.1928C183.541 22.8564 184.25 22.3993 184.597 21.8214C184.953 21.2332 185.12 20.2665 185.1 18.9214V5.4298C185.1 4.12698 184.931 3.17065 184.597 2.56126C184.25 1.973 183.541 1.51054 182.469 1.17439V1.04834H191.812V1.17439C190.763 1.49997 190.063 1.96243 189.716 2.56126C189.37 3.17065 189.203 4.12698 189.213 5.4298V13.6099L195.595 6.5331C196.907 5.09366 197.565 3.94835 197.565 3.09717C197.565 2.24599 196.907 1.60514 195.595 1.17439V1.04834H204.591V1.17439C203.372 1.62603 202.323 2.16195 201.439 2.7819C200.599 3.37041 199.319 4.57887 197.594 6.40704L194.76 9.3702L200.731 18.1177C201.928 19.8829 202.847 21.0702 203.488 21.6796C204.161 22.331 204.981 22.8355 205.947 23.1928Z" fill="white"/>
<path d="M5.20546 30.9673V31.4071H2.84177V37.6608H2.36348V31.4071H3.05176e-05V30.9673H5.20546Z" fill="white"/>
<path d="M11.157 30.9673L8.64348 35.1446H10.2191V35.5082H8.51229V37.6608H8.034V35.5082H6.30828V35.1446H7.90258L5.38904 30.9673H5.91425L8.28703 34.9062L10.6601 30.9673H11.157Z" fill="white"/>
<path d="M14.6466 30.9673C16.2974 30.9673 17.2916 31.8101 17.2916 33.223C17.2916 34.6285 16.2974 35.4714 14.6466 35.4714H12.771V37.6608H12.2925V30.9673H14.6466ZM14.6466 35.0315C16.0535 35.0315 16.8039 34.3705 16.8039 33.223C16.8039 32.0681 16.0535 31.4071 14.6466 31.4071H12.771V35.0315H14.6466Z" fill="white"/>
<path d="M23.1753 31.4071H19.5927V34.3435H22.4813V34.7342H19.5927V37.6608H19.1144V34.7342H18.1015V34.3435H19.1144V30.9673H23.1753V31.4071Z" fill="white"/>
<path d="M27.1709 33.4147C28.7183 33.4147 29.5437 34.1224 29.5437 35.4984C29.5437 36.9138 28.662 37.6608 27.0488 37.6608H24.5352V30.9673H25.0138V33.4147H27.1709ZM30.7535 37.6608V30.9673H31.2318V37.6608H30.7535ZM27.0584 37.2479C28.3714 37.2479 29.056 36.6557 29.056 35.5082C29.056 34.3705 28.3807 33.825 27.0584 33.825H25.0138V37.2479H27.0584Z" fill="white"/>
<path d="M38.4566 30.9673H38.9349V37.6608H38.4566V34.4762H34.0675V37.6608H33.5889V30.9673H34.0675V34.0462H38.4566V30.9673Z" fill="white"/>
<path d="M48.4158 30.9673L45.7711 35.3559V37.6608H45.2928V35.3559L42.6478 30.9673H43.173L45.5458 34.9062L47.9188 30.9673H48.4158Z" fill="white"/>
<path d="M52.2095 30.4648C51.3468 30.4648 50.7653 30.0348 50.7464 29.2983H51.1311C51.1497 29.8333 51.5811 30.1576 52.2095 30.1576C52.8285 30.1576 53.2599 29.8333 53.2788 29.2983H53.6633C53.6446 30.0348 53.0631 30.4648 52.2095 30.4648ZM49.5459 37.6644V30.971H50.0244V36.8413L54.498 30.971H54.9201V37.6644H54.4418V31.804L49.9679 37.6644H49.5459Z" fill="white"/>
<path d="M64.2519 37.6608L61.7477 34.486H60.1721V37.6608H59.6938V30.9673H60.1721V34.0462H61.7573L64.1114 30.9673H64.646L62.1324 34.228L64.8147 37.6608H64.2519Z" fill="white"/>
<path d="M66.4676 37.2209H70.5192V37.6608H65.9893V30.9673H70.3785V31.4071H66.4676V34.0462H69.9658V34.4762H66.4676V37.2209Z" fill="white"/>
<path d="M79.5282 30.9673H80.0064V37.6608H72.119V30.9673H72.5972V37.2209H75.8234V30.9673H76.3017V37.2209H79.5282V30.9673Z" fill="white"/>
<path d="M82.8392 37.2209H86.8908V37.6608H82.3609V30.9673H86.75V31.4071H82.8392V34.0462H86.3373V34.4762H82.8392V37.2209Z" fill="white"/>
<path d="M93.3582 30.9673H93.8365V37.6608H93.3582V34.4762H88.9688V37.6608H88.4905V30.9673H88.9688V34.0462H93.3582V30.9673Z" fill="white"/>
<path d="M96.2065 37.6608V30.9673H96.6847V37.6608H96.2065Z" fill="white"/>
<path d="M114.601 37.6608L112.434 34.486H110.99V37.6608H110.521V34.486H109.077L106.91 37.6608H106.338L108.683 34.2182L106.516 30.9673H107.06L109.067 34.0462H110.521V30.9673H110.99V34.0462H112.434L114.451 30.9673H114.985L112.828 34.2182L115.173 37.6608H114.601Z" fill="white"/>
<path d="M116.375 37.6608V30.9673H116.854V36.8376L121.327 30.9673H121.749V37.6608H121.271V31.8003L116.797 37.6608H116.375Z" fill="white"/>
<path d="M124.646 30.9673H128.951V37.6608H128.472V31.4071H125.077L124.993 33.8644C124.89 36.5599 124.468 37.7173 123.361 37.7173C123.211 37.7173 123.07 37.7074 122.892 37.6608L122.948 37.2111C123.07 37.2381 123.155 37.2479 123.258 37.2479C124.111 37.2479 124.458 36.2822 124.552 33.8742L124.646 30.9673Z" fill="white"/>
<path d="M134.132 37.7043C132.172 37.7043 130.718 36.2521 130.718 34.3109C130.718 32.3697 132.172 30.9175 134.132 30.9175C136.083 30.9175 137.546 32.3599 137.546 34.3109C137.546 36.2619 136.083 37.7043 134.132 37.7043ZM134.132 37.2547C135.802 37.2547 137.059 36.0015 137.059 34.3109C137.059 32.6179 135.802 31.3672 134.132 31.3672C132.454 31.3672 131.197 32.6179 131.197 34.3109C131.197 36.0015 132.454 37.2547 134.132 37.2547Z" fill="white"/>
<path d="M141.977 30.4648C141.114 30.4648 140.532 30.0348 140.514 29.2983H140.898C140.917 29.8333 141.348 30.1576 141.977 30.1576C142.596 30.1576 143.027 29.8333 143.046 29.2983H143.43C143.412 30.0348 142.83 30.4648 141.977 30.4648ZM139.313 37.6644V30.971H139.791V36.8413L144.265 30.971H144.687V37.6644H144.209V31.804L139.735 37.6644H139.313Z" fill="white"/>
<path d="M154.019 37.6608L151.515 34.486H149.939V37.6608H149.461V30.9673H149.939V34.0462H151.524L153.878 30.9673H154.413L151.899 34.228L154.582 37.6608H154.019Z" fill="white"/>
<path d="M158.562 37.7043C156.602 37.7043 155.149 36.2521 155.149 34.3109C155.149 32.3697 156.602 30.9175 158.562 30.9175C160.513 30.9175 161.976 32.3599 161.976 34.3109C161.976 36.2619 160.513 37.7043 158.562 37.7043ZM158.562 37.2547C160.232 37.2547 161.489 36.0015 161.489 34.3109C161.489 32.6179 160.232 31.3672 158.562 31.3672C156.884 31.3672 155.627 32.6179 155.627 34.3109C155.627 36.0015 156.884 37.2547 158.562 37.2547Z" fill="white"/>
<path d="M170.421 37.6608H169.952L169.943 31.933L167.195 36.7712H166.96L164.212 31.9526V37.6608H163.743V30.9673H164.147L167.082 36.1397L170.018 30.9673H170.412L170.421 37.6608Z" fill="white"/>
<path d="M172.786 30.9673H178.188V37.6608H177.71V31.4071H173.264V37.6608H172.786V30.9673Z" fill="white"/>
<path d="M181.09 30.9673H185.394V37.6608H184.917V31.4071H181.521L181.436 33.8644C181.333 36.5599 180.911 37.7173 179.805 37.7173C179.654 37.7173 179.514 37.7074 179.336 37.6608L179.392 37.2111C179.514 37.2381 179.598 37.2479 179.701 37.2479C180.555 37.2479 180.902 36.2822 180.996 33.8742L181.09 30.9673Z" fill="white"/>
<path d="M188.233 37.2209H192.283V37.6608H187.754V30.9673H192.143V31.4071H188.233V34.0462H191.731V34.4762H188.233V37.2209Z" fill="white"/>
<path d="M198.44 37.6608L195.937 34.486H194.36V37.6608H193.883V30.9673H194.36V34.0462H195.947L198.3 30.9673H198.836L196.32 34.228L199.003 37.6608H198.44Z" fill="white"/>
<path d="M202.981 37.7043C201.031 37.7043 199.576 36.2619 199.576 34.3109C199.576 32.3599 201.031 30.9175 202.981 30.9175C203.91 30.9175 204.742 31.2222 205.315 31.8439L205.015 32.1584C204.453 31.5957 203.767 31.3672 202.998 31.3672C201.32 31.3672 200.055 32.6277 200.055 34.3109C200.055 35.9941 201.32 37.2547 202.998 37.2547C203.767 37.2547 204.453 37.0163 205.015 36.4511L205.315 36.7681C204.742 37.3898 203.91 37.7043 202.981 37.7043Z" fill="white"/>
<path d="M101.474 39.4177V29.3701H101.952V39.4177H101.474Z" fill="white"/>
</svg>
