<svg width="280" height="89" viewBox="0 0 280 89" fill="none" xmlns="http://www.w3.org/2000/svg">
<path d="M75.3514 47.1917V41.5964H75.4774C77.3473 45.5157 79.4536 47.4753 81.7962 47.4753C82.8571 47.4753 83.7761 47.1443 84.5536 46.4823C85.3414 45.81 85.7352 44.9537 85.7352 43.9133C85.7144 42.2218 84.4853 40.6035 82.0482 39.0588C80.7981 38.2603 79.7791 37.5931 78.9913 37.0572C77.8988 36.3218 77.0059 35.4706 76.3126 34.5039C75.6194 33.5372 75.2779 32.4917 75.2885 31.3675C75.2885 30.653 75.4251 29.9753 75.698 29.3342C75.9712 28.6933 76.3389 28.1365 76.801 27.6635C77.2633 27.1802 77.7937 26.7651 78.3926 26.4184C78.9913 26.0717 79.6268 25.809 80.2991 25.6304C80.9821 25.4518 81.6596 25.3623 82.3317 25.3623C84.1176 25.3623 86.0504 25.8036 88.1304 26.6863V31.399H88.0043C86.2921 28.1102 84.3433 26.4656 82.1585 26.4656C81.1921 26.4656 80.3623 26.7757 79.6688 27.3957C78.9861 28.0156 78.6446 28.7985 78.6446 29.744C78.6446 31.3201 79.8791 32.8544 82.3476 34.3464C83.4926 35.0187 84.5273 35.6703 85.4517 36.3006C86.5442 37.0363 87.4371 37.9189 88.1304 38.9485C88.8236 39.9678 89.1651 41.0659 89.1545 42.2427C89.1545 44.0394 88.4455 45.5474 87.0274 46.7662C85.6198 47.9746 83.7447 48.5786 81.4021 48.5786C79.0596 48.5786 77.0427 48.1164 75.3514 47.1917Z" fill="#FAF2E7"/>
<path d="M96.5768 38.9185H103.904L100.201 28.138L96.5768 38.9185ZM112.854 47.9655V48.0916H103.967V47.9655C104.66 47.8077 105.143 47.5714 105.416 47.2561C105.7 46.9305 105.842 46.4209 105.842 45.7275C105.842 44.9918 105.338 43.1319 104.329 40.1479H96.1673C95.2849 42.8589 94.8438 44.6136 94.8438 45.4122C94.8438 46.1791 95.0064 46.7465 95.3321 47.1143C95.6579 47.4822 96.2039 47.7657 96.9709 47.9655V48.0916H89.6754V47.9655C90.6418 47.5662 91.4296 46.8728 92.0389 45.885C92.6481 44.8763 93.541 42.7066 94.7175 39.3756L99.5235 25.821H103.4L109.041 41.9606C109.734 43.9253 110.359 45.3385 110.916 46.2002C111.451 47.0303 112.098 47.6188 112.854 47.9655Z" fill="#FAF2E7"/>
<path d="M143.565 47.9969V48.0916H134.552V47.9655C135.445 47.5871 136.06 47.1721 136.396 46.7204C136.743 46.258 136.916 45.5646 136.916 44.6399C136.916 43.7467 136.884 42.8535 136.821 41.9606L136.002 29.1466L127.935 48.0916H126.296L118.811 28.9889H118.717L117.866 41.5979C117.803 42.4805 117.771 43.3843 117.771 44.3089C117.771 45.2965 117.96 46.0742 118.339 46.6416C118.717 47.1984 119.368 47.6397 120.292 47.9655V48.0916H113.249V47.9655C114.363 47.6082 115.087 47.0197 115.424 46.2002C115.739 45.4331 115.986 43.899 116.164 41.5979L116.905 31.6999C116.989 30.4074 117.031 29.4722 117.031 28.8943C117.031 28.138 116.831 27.5443 116.432 27.1133C116.043 26.6825 115.46 26.2938 114.683 25.9471V25.821H121.805L128.517 42.9535L135.781 25.821H142.399V25.9471C141.548 26.3044 140.939 26.714 140.572 27.1765C140.214 27.6387 140.036 28.306 140.036 29.1781C140.036 29.9767 140.067 30.8067 140.13 31.6682L140.808 41.6295C140.986 44.0251 141.212 45.5697 141.485 46.2631C141.769 46.9568 142.462 47.5347 143.565 47.9969Z" fill="#FAF2E7"/>
<path d="M151.158 38.9185H158.485L154.782 28.138L151.158 38.9185ZM167.435 47.9655V48.0916H158.548V47.9655C159.241 47.8077 159.725 47.5714 159.998 47.2561C160.281 46.9305 160.423 46.4209 160.423 45.7275C160.423 44.9918 159.919 43.1319 158.91 40.1479H150.748C149.866 42.8589 149.425 44.6136 149.425 45.4122C149.425 46.1791 149.588 46.7465 149.913 47.1143C150.239 47.4822 150.785 47.7657 151.552 47.9655V48.0916H144.257V47.9655C145.223 47.5662 146.011 46.8728 146.62 45.885C147.229 44.8763 148.122 42.7066 149.299 39.3756L154.105 25.821H157.981L163.622 41.9606C164.315 43.9253 164.94 45.3385 165.497 46.2002C166.033 47.0303 166.679 47.6188 167.435 47.9655Z" fill="#FAF2E7"/>
<path d="M184.484 48.0916H168.554V47.9655C169.626 47.6291 170.335 47.1721 170.682 46.5941C171.038 46.0059 171.207 45.0392 171.186 43.6941V30.2025C171.186 28.8997 171.018 27.9434 170.682 27.334C170.335 26.7457 169.626 26.2832 168.554 25.9471V25.821H177.898V25.9471C176.848 26.2727 176.149 26.7351 175.802 27.334C175.456 27.9434 175.288 28.8997 175.298 30.2025V46.9251H178.26C179.122 46.9251 179.705 46.9042 180.01 46.8622C180.493 46.7991 180.997 46.5941 181.522 46.2474C182.058 45.9007 182.51 45.5171 182.877 45.0969C183.518 44.3718 184.217 43.5523 184.973 42.6382H185.13L184.484 48.0916Z" fill="#FAF2E7"/>
<path d="M203.407 47.9655V48.0916H193.543V47.9655C194.614 47.6291 195.323 47.1669 195.67 46.5784C196.017 45.969 196.185 44.9972 196.174 43.6627V30.2025C196.174 28.8997 196.006 27.9434 195.67 27.334C195.323 26.7457 194.614 26.2832 193.543 25.9471V25.821H203.564C208.838 25.821 211.474 27.8016 211.474 31.7628C211.474 32.7086 211.327 33.5598 211.033 34.3161C210.739 35.0621 210.34 35.6821 209.836 36.176C209.331 36.6593 208.727 37.064 208.023 37.3896C207.32 37.7049 206.574 37.9307 205.786 38.0673C205.009 38.2039 204.174 38.2723 203.281 38.2723H200.287V43.6627C200.287 44.9552 200.502 45.9113 200.933 46.5312C201.363 47.1512 202.188 47.6291 203.407 47.9655ZM200.287 26.9243V37.1847H201.831C203.827 37.1847 205.261 36.6805 206.133 35.6718C207.004 34.6525 207.44 33.4232 207.44 31.9835C207.44 30.5229 207.073 29.3147 206.337 28.3586C205.602 27.4023 204.431 26.9243 202.824 26.9243H200.287Z" fill="#FAF2E7"/>
<path d="M217.059 38.9185H224.386L220.683 28.138L217.059 38.9185ZM233.336 47.9655V48.0916H224.449V47.9655C225.142 47.8077 225.625 47.5714 225.899 47.2561C226.182 46.9305 226.324 46.4209 226.324 45.7275C226.324 44.9918 225.82 43.1319 224.811 40.1479H216.649C215.767 42.8589 215.326 44.6136 215.326 45.4122C215.326 46.1791 215.489 46.7465 215.814 47.1143C216.14 47.4822 216.686 47.7657 217.453 47.9655V48.0916H210.158V47.9655C211.124 47.5662 211.912 46.8728 212.521 45.885C213.13 44.8763 214.023 42.7066 215.2 39.3756L220.006 25.821H223.882L229.523 41.9606C230.216 43.9253 230.841 45.3385 231.398 46.2002C231.934 47.0303 232.579 47.6188 233.336 47.9655Z" fill="#FAF2E7"/>
<path d="M255.811 47.9655V48.0916H253.369C251.961 48.0916 250.974 48.0284 250.407 47.9023C249.829 47.7763 249.356 47.5347 248.989 47.1775C248.6 46.7991 248.069 46.0899 247.397 45.0495L242.875 38.083H241.204V43.6627C241.204 44.9866 241.373 45.9584 241.709 46.5784C242.055 47.1775 242.754 47.6397 243.804 47.9655V48.0916H234.461V47.9655C235.532 47.6291 236.241 47.1669 236.588 46.5784C236.935 45.969 237.103 44.9972 237.092 43.6627V30.2025C237.092 28.8997 236.924 27.9434 236.588 27.334C236.241 26.7457 235.532 26.2832 234.461 25.9471V25.821H244.23C249.734 25.821 252.486 27.7595 252.486 31.6368C252.486 33.1394 251.909 34.3636 250.753 35.3091C249.608 36.2549 248.243 36.9326 246.657 37.3424L251.872 44.5767C252.849 45.9113 253.547 46.757 253.968 47.1143C254.409 47.4927 255.023 47.7763 255.811 47.9655ZM241.204 26.9243V37.0901H242.481C244.288 37.0901 245.711 36.649 246.751 35.7664C247.802 34.8838 248.327 33.5807 248.327 31.8575C248.327 30.5126 247.933 29.3567 247.145 28.3901C246.368 27.4128 245.322 26.9243 244.009 26.9243H241.204Z" fill="#FAF2E7"/>
<path d="M279.455 47.9655V48.0916H269.654V47.9655C270.243 47.8289 270.673 47.6714 270.946 47.4927C271.218 47.3244 271.346 47.0409 271.324 46.6416C271.324 45.9901 270.695 44.6976 269.432 42.7643L265.559 36.9483L262.721 39.9586V43.6941C262.721 45.0181 262.888 45.9847 263.225 46.5941C263.571 47.1826 264.271 47.6397 265.32 47.9655V48.0916H255.978V47.9655C257.049 47.6291 257.759 47.1721 258.105 46.5941C258.462 46.0059 258.629 45.0392 258.609 43.6941V30.2025C258.609 28.8997 258.439 27.9434 258.105 27.334C257.759 26.7457 257.049 26.2832 255.978 25.9471V25.821H265.32V25.9471C264.271 26.2727 263.571 26.7351 263.225 27.334C262.878 27.9434 262.711 28.8997 262.721 30.2025V38.3826L269.103 31.3058C270.415 29.8664 271.073 28.7211 271.073 27.8699C271.073 27.0187 270.415 26.3778 269.103 25.9471V25.821H278.099V25.9471C276.881 26.3987 275.832 26.9347 274.947 27.5546C274.107 28.1431 272.827 29.3516 271.103 31.1797L268.268 34.1429L274.24 42.8904C275.436 44.6556 276.355 45.843 276.996 46.4523C277.669 47.1038 278.49 47.6082 279.455 47.9655Z" fill="#FAF2E7"/>
<path d="M78.7139 55.7397V56.1796H76.3503V62.4332H75.872V56.1796H73.5085V55.7397H78.7139Z" fill="#FAF2E7"/>
<path d="M84.6655 55.7397L82.152 59.917H83.7276V60.2807H82.0208V62.4332H81.5425V60.2807H79.8168V59.917H81.4111L78.8975 55.7397H79.4227L81.7955 59.6787L84.1685 55.7397H84.6655Z" fill="#FAF2E7"/>
<path d="M88.1551 55.7397C89.8059 55.7397 90.8 56.5826 90.8 57.9955C90.8 59.401 89.8059 60.2438 88.1551 60.2438H86.2795V62.4332H85.801V55.7397H88.1551ZM88.1551 59.804C89.5619 59.804 90.3124 59.143 90.3124 57.9955C90.3124 56.8406 89.5619 56.1796 88.1551 56.1796H86.2795V59.804H88.1551Z" fill="#FAF2E7"/>
<path d="M96.6838 56.1796H93.1011V59.116H95.9898V59.5067H93.1011V62.4332H92.6229V59.5067H91.61V59.116H92.6229V55.7397H96.6838V56.1796Z" fill="#FAF2E7"/>
<path d="M100.679 58.1871C102.227 58.1871 103.052 58.8948 103.052 60.2709C103.052 61.6862 102.17 62.4332 100.557 62.4332H98.0437V55.7397H98.5223V58.1871H100.679ZM104.262 62.4332V55.7397H104.74V62.4332H104.262ZM100.567 62.0204C101.88 62.0204 102.565 61.4282 102.565 60.2807C102.565 59.143 101.889 58.5975 100.567 58.5975H98.5223V62.0204H100.567Z" fill="#FAF2E7"/>
<path d="M111.965 55.7397H112.443V62.4332H111.965V59.2486H107.576V62.4332H107.097V55.7397H107.576V58.8186H111.965V55.7397Z" fill="#FAF2E7"/>
<path d="M121.924 55.7397L119.28 60.1283V62.4332H118.801V60.1283L116.156 55.7397H116.682L119.054 59.6787L121.427 55.7397H121.924Z" fill="#FAF2E7"/>
<path d="M125.718 55.2373C124.855 55.2373 124.274 54.8072 124.255 54.0708H124.64C124.658 54.6057 125.09 54.9301 125.718 54.9301C126.337 54.9301 126.768 54.6057 126.787 54.0708H127.172C127.153 54.8072 126.572 55.2373 125.718 55.2373ZM123.054 62.4369V55.7434H123.533V61.6137L128.007 55.7434H128.429V62.4369H127.95V56.5764L123.476 62.4369H123.054Z" fill="#FAF2E7"/>
<path d="M137.76 62.4332L135.256 59.2585H133.681V62.4332H133.202V55.7397H133.681V58.8186H135.266L137.62 55.7397H138.154L135.641 59.0005L138.323 62.4332H137.76Z" fill="#FAF2E7"/>
<path d="M139.976 61.9934H144.028V62.4332H139.498V55.7397H143.887V56.1796H139.976V58.8186H143.474V59.2486H139.976V61.9934Z" fill="#FAF2E7"/>
<path d="M153.037 55.7397H153.515V62.4332H145.627V55.7397H146.106V61.9934H149.332V55.7397H149.81V61.9934H153.037V55.7397Z" fill="#FAF2E7"/>
<path d="M156.348 61.9934H160.399V62.4332H155.869V55.7397H160.259V56.1796H156.348V58.8186H159.846V59.2486H156.348V61.9934Z" fill="#FAF2E7"/>
<path d="M166.867 55.7397H167.345V62.4332H166.867V59.2486H162.477V62.4332H161.999V55.7397H162.477V58.8186H166.867V55.7397Z" fill="#FAF2E7"/>
<path d="M169.715 62.4332V55.7397H170.193V62.4332H169.715Z" fill="#FAF2E7"/>
<path d="M188.109 62.4332L185.943 59.2585H184.498V62.4332H184.029V59.2585H182.585L180.419 62.4332H179.846L182.191 58.9906L180.025 55.7397H180.569L182.576 58.8186H184.029V55.7397H184.498V58.8186H185.943L187.959 55.7397H188.494L186.337 58.9906L188.681 62.4332H188.109Z" fill="#FAF2E7"/>
<path d="M189.884 62.4332V55.7397H190.362V61.61L194.836 55.7397H195.258V62.4332H194.779V56.5728L190.306 62.4332H189.884Z" fill="#FAF2E7"/>
<path d="M198.154 55.7397H202.459V62.4332H201.981V56.1796H198.586L198.501 58.6368C198.398 61.3324 197.976 62.4897 196.869 62.4897C196.719 62.4897 196.579 62.4799 196.4 62.4332L196.457 61.9835C196.579 62.0106 196.663 62.0204 196.766 62.0204C197.62 62.0204 197.967 61.0547 198.061 58.6466L198.154 55.7397Z" fill="#FAF2E7"/>
<path d="M207.641 62.477C205.681 62.477 204.227 61.0248 204.227 59.0836C204.227 57.1424 205.681 55.6902 207.641 55.6902C209.592 55.6902 211.055 57.1326 211.055 59.0836C211.055 61.0346 209.592 62.477 207.641 62.477ZM207.641 62.0274C209.31 62.0274 210.567 60.7742 210.567 59.0836C210.567 57.3906 209.31 56.1399 207.641 56.1399C205.962 56.1399 204.705 57.3906 204.705 59.0836C204.705 60.7742 205.962 62.0274 207.641 62.0274Z" fill="#FAF2E7"/>
<path d="M215.485 55.2373C214.622 55.2373 214.041 54.8072 214.022 54.0708H214.407C214.425 54.6057 214.857 54.9301 215.485 54.9301C216.104 54.9301 216.536 54.6057 216.554 54.0708H216.939C216.92 54.8072 216.339 55.2373 215.485 55.2373ZM212.822 62.4369V55.7434H213.3V61.6137L217.774 55.7434H218.196V62.4369H217.717V56.5764L213.244 62.4369H212.822Z" fill="#FAF2E7"/>
<path d="M227.528 62.4332L225.024 59.2585H223.448V62.4332H222.97V55.7397H223.448V58.8186H225.033L227.387 55.7397H227.922L225.408 59.0005L228.09 62.4332H227.528Z" fill="#FAF2E7"/>
<path d="M232.071 62.477C230.111 62.477 228.657 61.0248 228.657 59.0836C228.657 57.1424 230.111 55.6902 232.071 55.6902C234.022 55.6902 235.485 57.1326 235.485 59.0836C235.485 61.0346 234.022 62.477 232.071 62.477ZM232.071 62.0274C233.74 62.0274 234.997 60.7742 234.997 59.0836C234.997 57.3906 233.74 56.1399 232.071 56.1399C230.392 56.1399 229.135 57.3906 229.135 59.0836C229.135 60.7742 230.392 62.0274 232.071 62.0274Z" fill="#FAF2E7"/>
<path d="M243.93 62.4332H243.461L243.451 56.7054L240.703 61.5437H240.469L237.721 56.7251V62.4332H237.252V55.7397H237.655L240.591 60.9122L243.526 55.7397H243.92L243.93 62.4332Z" fill="#FAF2E7"/>
<path d="M246.294 55.7397H251.697V62.4332H251.218V56.1796H246.773V62.4332H246.294V55.7397Z" fill="#FAF2E7"/>
<path d="M254.598 55.7397H258.902V62.4332H258.426V56.1796H255.029L254.945 58.6368C254.842 61.3324 254.42 62.4897 253.313 62.4897C253.163 62.4897 253.022 62.4799 252.844 62.4332L252.9 61.9835C253.022 62.0106 253.107 62.0204 253.21 62.0204C254.064 62.0204 254.41 61.0547 254.504 58.6466L254.598 55.7397Z" fill="#FAF2E7"/>
<path d="M261.741 61.9934H265.792V62.4332H261.262V55.7397H265.652V56.1796H261.741V58.8186H265.239V59.2486H261.741V61.9934Z" fill="#FAF2E7"/>
<path d="M271.949 62.4332L269.445 59.2585H267.868V62.4332H267.392V55.7397H267.868V58.8186H269.455L271.809 55.7397H272.344L269.829 59.0005L272.511 62.4332H271.949Z" fill="#FAF2E7"/>
<path d="M276.49 62.477C274.539 62.477 273.085 61.0346 273.085 59.0836C273.085 57.1326 274.539 55.6902 276.49 55.6902C277.418 55.6902 278.251 55.9949 278.823 56.6166L278.524 56.9311C277.961 56.3684 277.276 56.1399 276.507 56.1399C274.829 56.1399 273.564 57.4004 273.564 59.0836C273.564 60.7668 274.829 62.0274 276.507 62.0274C277.276 62.0274 277.961 61.789 278.524 61.2238L278.823 61.5408C278.251 62.1625 277.418 62.477 276.49 62.477Z" fill="#FAF2E7"/>
<path d="M174.982 64.1902V54.1426H175.461V64.1902H174.982Z" fill="#FAF2E7"/>
<path fill-rule="evenodd" clip-rule="evenodd" d="M30.1375 0.883789H30.1377C46.3814 0.883789 59.5495 14.0555 59.5495 30.3036V59.2491C59.5495 75.4972 46.3814 88.6689 30.1377 88.6689H30.1375C13.8938 88.6689 0.725647 75.4972 0.725647 59.2491V30.3036C0.725647 14.0555 13.8938 0.883789 30.1375 0.883789ZM10.5788 24.04C10.2129 18.5211 14.1525 14.2266 20.7199 12.9863C23.0013 12.5554 27.1612 12.7025 29.2074 13.2865C32.6881 14.2799 34.8589 15.85 35.9411 18.1569C36.397 19.1284 36.4929 19.6196 36.4929 20.9877C36.493 22.4705 36.4288 22.7468 35.8774 23.6344C35.4109 24.3856 34.9394 24.8019 33.9326 25.3528C32.7431 26.0035 32.4077 26.0885 30.7382 26.1614C28.4484 26.2613 26.4912 25.7841 23.7687 24.4617C21.801 23.5061 18.4382 21.2791 18.9627 21.2791C19.1353 21.2791 19.5946 21.5172 19.9834 21.8081C22.1918 23.4609 25.9077 24.7627 28.417 24.7627C33.9775 24.7627 36.2347 19.251 32.2517 15.398C30.0478 13.2658 26.1704 12.5853 22.1269 13.6213C17.2078 14.8816 13.4464 19.6731 13.9006 24.1007C14.2521 27.5265 16.8206 31.073 21.8591 35.0888C23.6502 36.5166 23.8937 36.6508 24.2997 36.4339C24.7289 36.2045 24.7442 36.1046 24.6196 34.3515C24.3762 30.9291 23.0682 29.3272 20.207 28.9484C19.6262 28.8712 19.1511 28.7204 19.1511 28.6131C19.1511 28.4907 22.8866 28.4512 29.156 28.5075C37.6817 28.584 39.3868 28.6496 40.6886 28.9508C47.8317 30.6044 52.2011 35.4083 52.1902 41.596C52.1814 46.4553 49.853 50.1864 45.4684 52.3664C44.3712 52.9118 44.0042 53.194 44.0799 53.4336C44.617 55.1402 44.7619 58.5929 44.3746 60.4606C43.3336 65.4816 37.8537 70.1157 31.4217 71.4139L29.6052 71.7806L29.7348 72.4014C29.9863 73.6039 30.6031 74.712 31.3286 75.2647C32.1275 75.8729 33.646 76.4035 34.588 76.4035C34.9327 76.4035 35.1299 76.4897 35.0564 76.6083C34.9755 76.7391 32.1167 76.8133 27.155 76.8133C22.1933 76.8133 19.3345 76.7391 19.2537 76.6083C19.1827 76.4936 19.3417 76.4035 19.6148 76.4035C20.541 76.4035 22.1293 75.7983 22.9229 75.143C23.7732 74.4411 24.4752 73.1553 24.4826 72.2866C24.4868 71.7883 24.3964 71.7396 23.0107 71.4924C19.0123 70.7789 14.9881 68.6854 12.4023 65.9736C8.23408 61.6028 6.90889 54.5281 9.20254 48.8915C10.8792 44.7712 15.368 40.3364 20.2129 38.0128C21.4254 37.4315 22.4215 36.8958 22.4262 36.8225C22.4309 36.7493 21.6727 36.2076 20.7416 35.6183C17.56 33.6061 14.0721 30.7328 12.6247 28.9324C11.3148 27.3025 10.697 25.8255 10.5788 24.04ZM46.3617 39.3123C45.5271 34.4507 42.5582 30.9757 38.3953 29.9873C36.1701 29.4587 31.2646 29.447 29.9083 29.9666C29.6687 30.0584 29.6178 30.9577 29.6178 35.0909V40.104L31.6188 41.1785C34.5516 42.7532 36.6753 44.0976 38.5374 45.558C40.5614 47.1456 41.2157 47.8328 42.4037 49.6194L43.3299 51.0121L44.0681 50.2532C46.1203 48.143 47.0868 43.5338 46.3617 39.3123ZM36.5224 47.6436C34.4179 44.703 30.0594 41.1528 24.5778 37.914C23.7811 37.4431 23.0736 37.0582 23.0056 37.0582C22.5233 37.0582 18.5135 39.3392 17.0315 40.4566C12.5462 43.8387 10.0031 47.3798 8.9956 51.6465C8.30603 54.5676 8.80597 58.4426 10.2428 61.3102C11.5048 63.8288 13.0564 65.5088 15.5851 67.0949C22.3448 71.3345 31.0923 70.3271 36.5196 64.6834C38.6236 62.4957 39.6661 59.8281 39.6677 56.6284C39.6683 55.5953 39.7298 55.0326 39.4786 54.7273C39.1339 54.3085 38.2004 54.3741 35.713 54.3741C33.6587 54.3741 31.47 54.3322 30.8492 54.2809L29.7205 54.1876L29.6665 60.9517L29.6124 67.7157L28.4318 67.9593C27.7824 68.0932 26.6754 68.2628 25.9717 68.3362L24.6923 68.4698V53.9922V39.5145L26.3854 40.5691C27.3167 41.1492 28.4231 41.8647 28.8438 42.1587L29.6091 42.6935L29.6136 47.8587L29.6178 53.0235L30.3874 53.1853C31.3906 53.3961 37.2952 53.397 38.2887 53.1866C38.7789 53.0827 39.0585 52.9078 39.0585 52.7045C39.0585 52.1451 37.4576 48.9508 36.5224 47.6436Z" fill="#FAF2E7"/>
</svg>
